<?xml version="1.0" encoding="utf-8"?>
<!-- Generator: Adobe Illustrator 16.0.3, SVG Export Plug-In . SVG Version: 6.00 Build 0)  -->
<!DOCTYPE svg PUBLIC "-//W3C//DTD SVG 1.1//EN" "http://www.w3.org/Graphics/SVG/1.1/DTD/svg11.dtd">
<svg version="1.1" id="Capa_1" xmlns="http://www.w3.org/2000/svg" xmlns:xlink="http://www.w3.org/1999/xlink" x="0px" y="0px"
	 width="792px" height="612px" viewBox="0 0 792 612" enable-background="new 0 0 792 612" xml:space="preserve">
<g>
	<g>
		<path d="M639.516,367.613"/>
		<path fill="none" stroke="#FFFFFF" stroke-width="3.893" stroke-miterlimit="10" d="M639.516,367.613"/>
		<path fill="#84CFC9" d="M149.853,944.822l-0.021,0.381"/>
	</g>
	<g>
		<line fill="#0F218B" x1="299.125" y1="336.016" x2="479.922" y2="340.574"/>
		<line fill="none" stroke="#DAE9ED" stroke-width="0.459" x1="299.125" y1="336.016" x2="479.922" y2="340.574"/>
		<path fill="none" stroke="#0F218B" stroke-width="20.613" d="M478.177,316.635l43.663-43.664
			c-0.04-70.563-57.253-127.752-127.822-127.752c-70.573,0-127.786,57.189-127.825,127.752l43.652,43.664H478.177z"/>
		<path fill="none" stroke="#97D8E8" stroke-width="6.883" d="M521.84,272.972c-0.04-70.563-57.253-127.752-127.822-127.752
			c-70.573,0-127.786,57.19-127.825,127.752l127.815,127.84L521.84,272.972z"/>
		<path fill="#02405C" d="M521.84,272.972c-0.04-70.563-57.253-127.752-127.822-127.752c-70.573,0-127.786,57.19-127.825,127.752
			l127.815,127.84L521.84,272.972z"/>
	</g>
	<g>
		<defs>
			<path id="SVGID_1_" d="M505.829,224.298c2.745,6.281,4.972,12.84,6.634,19.618v32.568l-6.634,6.632V224.298z M275.025,275.941
				v-29.72c1.726-7.702,4.184-15.123,7.295-22.199v59.218L275.025,275.941z M292.93,293.852v-89.066
				c2.076-3.067,4.293-6.033,6.632-8.892v104.593L292.93,293.852z M487.923,195.229c2.591,3.12,5.025,6.37,7.296,9.741v88.759
				l-7.296,7.297V195.229z M310.174,311.099V184.478c2.344-2.219,4.782-4.345,7.293-6.376v140.294L310.174,311.099z
				 M470.019,177.663c2.513,2.006,4.944,4.109,7.295,6.309v127.667l-7.295,7.297V177.663z M328.083,329.012V170.428
				c2.374-1.529,4.811-2.977,7.294-4.341v170.22L328.083,329.012z M452.109,165.78c2.483,1.35,4.915,2.786,7.294,4.301v159.464
				l-7.294,7.297V165.78z M434.864,158.1c2.241,0.799,4.454,1.649,6.634,2.57v186.789l-6.634,6.629V158.1z M345.988,346.923V160.908
				c2.394-1.026,4.829-1.975,7.295-2.849v196.161L345.988,346.923z M363.898,364.83V154.834c2.186-0.557,4.399-1.045,6.632-1.484
				v218.117L363.898,364.83z M416.958,153.248c2.459,0.469,4.893,1.004,7.294,1.617v209.839l-7.294,7.295V153.248z M381.143,382.08
				V151.757c2.41-0.251,4.844-0.431,7.299-0.541v238.16L381.143,382.08z M399.05,151.193c2.45,0.099,4.884,0.266,7.297,0.506
				v230.912l-7.297,7.295V151.193z M391.182,145.254c-5.125,0.113-10.171,0.531-15.129,1.226c-0.146,0.023-0.29,0.041-0.437,0.063
				c-3.97,0.57-7.876,1.324-11.718,2.253c-0.009,0.003-0.015,0.004-0.029,0.007c-6.141,1.485-12.116,3.416-17.881,5.752
				c-0.013,0.006-0.026,0.011-0.039,0.019c-1.791,0.727-3.562,1.489-5.313,2.298c-0.021,0.011-0.043,0.02-0.066,0.031
				c-0.861,0.396-1.712,0.799-2.56,1.215c-0.048,0.021-0.092,0.04-0.136,0.067c-3.349,1.637-6.615,3.417-9.791,5.333v-0.002
				c0,0-0.009,0.004-0.011,0.009c-3.656,2.206-7.19,4.583-10.591,7.13c0,0-0.009,0.007-0.014,0.007v0.002
				c-3.428,2.564-6.721,5.306-9.87,8.201c-0.187,0.169-0.369,0.343-0.553,0.512c-0.668,0.619-1.331,1.248-1.985,1.882
				c-0.221,0.216-0.443,0.434-0.664,0.651c-0.639,0.627-1.271,1.259-1.894,1.899c-0.193,0.2-0.389,0.397-0.582,0.598
				c-0.783,0.812-1.556,1.631-2.314,2.466c-0.016,0.014-0.031,0.031-0.045,0.045c-4.465,4.896-8.547,10.139-12.214,15.683
				c-0.012,0.018-0.023,0.033-0.036,0.052c-4.87,7.373-9.01,15.275-12.287,23.612c-0.017,0.039-0.032,0.078-0.047,0.117
				c-0.567,1.452-1.107,2.92-1.625,4.397c-0.118,0.344-0.244,0.685-0.36,1.027c-0.184,0.542-0.357,1.086-0.535,1.63
				c-0.137,0.417-0.279,0.837-0.409,1.257c-0.166,0.52-0.32,1.05-0.478,1.578c-0.137,0.446-0.271,0.892-0.399,1.339
				c-0.147,0.517-0.289,1.035-0.431,1.554c-0.13,0.463-0.259,0.926-0.382,1.393c-0.132,0.514-0.26,1.026-0.386,1.542
				c-0.118,0.479-0.238,0.958-0.352,1.441c-0.122,0.51-0.235,1.02-0.35,1.531c-0.11,0.491-0.219,0.979-0.323,1.472
				c-0.105,0.507-0.208,1.015-0.31,1.524c-0.1,0.505-0.196,1.013-0.292,1.519c-0.092,0.503-0.182,1.004-0.267,1.507
				c-0.092,0.519-0.179,1.039-0.263,1.562c-0.081,0.497-0.159,0.994-0.231,1.493c-0.08,0.534-0.153,1.073-0.225,1.609
				c-0.066,0.49-0.132,0.979-0.193,1.466c-0.069,0.557-0.13,1.114-0.192,1.672c-0.052,0.477-0.107,0.954-0.153,1.435
				c-0.056,0.58-0.106,1.158-0.158,1.741c-0.037,0.463-0.08,0.923-0.116,1.388c-0.045,0.613-0.081,1.229-0.117,1.845
				c-0.026,0.438-0.056,0.869-0.075,1.307c-0.037,0.69-0.06,1.381-0.082,2.073c-0.013,0.369-0.032,0.732-0.038,1.097
				c-0.027,1.06-0.043,2.124-0.043,3.19l21.819,21.825l4.918,4.923l12.921,12.919l4.324,4.326l66.518,66.53l4.45,4.448
				l12.863,12.867l5.044-5.041l8.75-8.752l9.158-9.156l9.004-9.01l8.902-8.899l7.077-7.079l10.168-10.164v-0.001l7.294-7.295
				l2.931-2.932l14.979-14.979l6.742-6.744l11.163-11.165l10.561-10.561l6.684-6.684l9.371-9.376c0-1.083-0.013-2.162-0.041-3.238
				c-0.009-0.392-0.027-0.79-0.042-1.182c-0.021-0.675-0.043-1.352-0.078-2.022c-0.026-0.507-0.061-1.015-0.094-1.522
				c-0.033-0.555-0.066-1.106-0.105-1.658c-0.042-0.57-0.097-1.142-0.146-1.713c-0.045-0.478-0.079-0.958-0.131-1.437
				c-0.063-0.619-0.138-1.241-0.208-1.86c-0.046-0.417-0.092-0.839-0.142-1.259c-0.083-0.665-0.178-1.323-0.27-1.98
				c-0.053-0.368-0.099-0.74-0.157-1.108c-0.102-0.7-0.221-1.396-0.334-2.095c-0.053-0.321-0.104-0.64-0.158-0.958
				c-0.131-0.738-0.268-1.472-0.409-2.207c-0.051-0.274-0.104-0.544-0.158-0.818c-0.151-0.768-0.313-1.536-0.482-2.302
				c-0.05-0.228-0.099-0.457-0.15-0.688c-0.181-0.8-0.369-1.598-0.566-2.393c-0.043-0.187-0.087-0.373-0.136-0.561
				c-0.205-0.827-0.422-1.655-0.644-2.474c-0.045-0.151-0.085-0.304-0.123-0.452c-0.235-0.85-0.478-1.701-0.732-2.547
				c-0.035-0.112-0.066-0.227-0.104-0.342c-0.263-0.875-0.534-1.748-0.815-2.615c-0.025-0.08-0.05-0.159-0.076-0.24
				c-0.296-0.896-0.599-1.784-0.907-2.673c-0.022-0.05-0.037-0.101-0.056-0.152c-0.322-0.91-0.652-1.816-0.993-2.718
				c-0.009-0.025-0.021-0.049-0.027-0.072c-0.354-0.925-0.712-1.84-1.085-2.754v-0.002c-3.161-7.774-7.063-15.168-11.624-22.092
				c-0.013-0.017-0.024-0.034-0.033-0.055c-4.511-6.836-9.657-13.215-15.359-19.051c-0.043-0.045-0.085-0.089-0.128-0.134
				c-0.819-0.838-1.652-1.665-2.499-2.48c-0.026-0.028-0.052-0.056-0.083-0.081c-7.045-6.799-14.874-12.793-23.331-17.842h-0.002
				c-9.234-5.507-19.221-9.887-29.77-12.941c-0.016-0.002-0.024-0.009-0.042-0.011c-4.13-1.194-8.342-2.188-12.634-2.968h-0.003
				c-1.667-0.302-3.347-0.565-5.035-0.801c-0.142-0.019-0.285-0.042-0.427-0.062c-4.09-0.557-8.239-0.921-12.443-1.084h-0.009
				c-0.791-0.032-1.582-0.056-2.381-0.075c-0.878-0.02-1.763-0.034-2.646-0.034C393.066,145.219,392.123,145.233,391.182,145.254"/>
		</defs>
		<clipPath id="SVGID_2_">
			<use xlink:href="#SVGID_1_"  overflow="visible"/>
		</clipPath>
		
			<linearGradient id="SVGID_3_" gradientUnits="userSpaceOnUse" x1="1.8491" y1="612.875" x2="4.094" y2="612.875" gradientTransform="matrix(68.728 68.728 68.728 -68.728 -41945.1563 42177.1211)">
			<stop  offset="0" style="stop-color:#09003E"/>
			<stop  offset="0.022" style="stop-color:#09003E"/>
			<stop  offset="0.4049" style="stop-color:#97D8E8"/>
			<stop  offset="0.8072" style="stop-color:#252563"/>
			<stop  offset="1" style="stop-color:#09003E"/>
		</linearGradient>
		<polygon clip-path="url(#SVGID_2_)" fill="url(#SVGID_3_)" points="394.015,17.397 649.631,273.016 394.015,528.633 
			138.397,273.016 		"/>
	</g>
	<g>
		<path fill="#FFB300" d="M312.516,339.223c0,0-50.383-59.374-116.42-108.449c0,0-11.509-8.155-22.068,2.823
			c0,0-10.643,11.739-1.636,21.915c0,0,41.629,44.878,124.072,100.188"/>
		<path fill="none" stroke="#000000" stroke-width="0.918" stroke-linecap="round" stroke-linejoin="round" d="M312.516,339.223
			c0,0-50.383-59.374-116.42-108.449c0,0-11.509-8.155-22.068,2.823c0,0-10.643,11.739-1.636,21.915
			c0,0,41.629,44.878,124.072,100.188"/>
		<path fill="#FFFFFF" d="M191.932,235.146L377.36,406.787L187.232,241.433c0,0-3.605-3.622-1.323-6.387
			C188.196,232.278,191.932,235.146,191.932,235.146"/>
		<path fill="none" stroke="#000000" stroke-width="0.581" stroke-linecap="round" stroke-linejoin="round" d="M172.594,243.549
			c0.214-4.132,3.519-7.674,8.599-8.37c4.179-0.569,14.87,5.073,18.477,6.965c5.123,2.682,8.033,6.054,12.546,9.688
			c6.408,5.167,11.306,11.51,17.305,17.052c5.735,5.305,12.424,9.573,18.614,14.56c26.102,21.004,51.373,45.416,68.194,65.021
			c0,0,7.891,7.388,10.376,9.698"/>
		<path fill="none" stroke="#000000" stroke-width="0.581" stroke-linecap="round" stroke-linejoin="round" d="M236.191,268.021
			c-34.539-30.554-48.614-38.273-56.476-37.812"/>
		<path fill="none" stroke="#000000" stroke-width="0.581" stroke-linecap="round" stroke-linejoin="round" d="M175.014,245.208
			c-3.457,7.655,8.724,17.718,15.345,22.563c13.552,9.946,28.966,19.61,41.148,31.36c0,0,5.62,6.832,14.037,12.511"/>
		<path fill="none" stroke="#000000" stroke-width="0.581" stroke-linecap="round" stroke-linejoin="round" d="M222.963,271.247
			c-4.985-6.785-10.048-9.926-20.14-16.73c-6.303-4.261-13.625-14.222-18.016-11.707c-13,7.446-0.313,14.643,4.988,21.458"/>
		<path fill="none" stroke="#000000" stroke-width="0.581" stroke-linecap="round" stroke-linejoin="round" d="M225.613,287.065
			c7.404,5.575,8.686,6.509,15.77,12.593c6.893,5.939,17.864,19.339,23.632,25.632c7.236,7.91,17.958,13.102,25.875,20.426
			c12.253,11.333,27.235,21.221,40.632,30.547"/>
		<path fill="none" stroke="#000000" stroke-width="0.581" stroke-linecap="round" stroke-linejoin="round" d="M231.439,283.89
			c6.766,1.683,12.264,8.877,17.146,13.404c7.119,6.603,13.651,13.622,21.051,19.974c10.776,9.271,21.494,17.838,32.565,26.542
			c6.324,4.966,13.885,8.401,19.527,14.075c3.926,3.95,23.964,17.832,27.723,23.252l12.936,10.707"/>
		<path fill="none" stroke="#000000" stroke-width="0.581" stroke-linecap="round" stroke-linejoin="round" d="M344.277,379.998
			c8.234,9.146,15.468,11.454,20.254,15.783c4.821,4.354,18.861,12.365,23.774,16.588"/>
		<path fill="none" stroke="#000000" stroke-width="0.581" stroke-linecap="round" stroke-linejoin="round" d="M305.011,350.48
			c11.813,8.188,22.505,19.369,34.749,26.664"/>
		<path fill="none" stroke="#000000" stroke-width="0.581" stroke-linecap="round" stroke-linejoin="round" d="M265.053,329.657
			c-7.366-5.22-39.285-29.082-50.043-39.667c0,0-9.331-7.025-10.971-8.853"/>
		<path fill="none" stroke="#000000" stroke-width="0.581" stroke-linecap="round" stroke-linejoin="round" d="M225.613,287.065
			c-3.686-2.215-1.235-3.548-7.091-8.199c-2.125-1.706-6.245-8.22-8.897-10.942c-3.478-3.565-15.218-16.913-20.037-16.297
			c-0.87,7.014,18.598,22.896,22.42,26.875"/>
		<path fill="none" stroke="#000000" stroke-width="0.581" stroke-linecap="round" stroke-linejoin="round" d="M304.989,350.92
			c-2.808-1.287-4.37-4.672-6.588-6.779c-2.816-2.67-6.277-4.864-9.711-6.729c-9.501-5.17-12.453-7.354-18.859-15.786
			c0.252-0.043-3.485-2.894-3.361-3.104c-4.497-3.666-9.181-6.694-13.658-12.59"/>
		<path fill="none" stroke="#000000" stroke-width="0.581" stroke-linecap="round" stroke-linejoin="round" d="M393.575,427.894"/>
		<path fill="none" stroke="#000000" stroke-width="0.581" stroke-linecap="round" stroke-linejoin="round" d="M335.187,379.084
			c19.218,15.387,24.152,15.712,28.709,19.381c4.278,3.469,7.812,7.832,12.345,11.011c4.3,3.031,9.098,4.872,12.927,8.567"/>
		<path fill="none" stroke="#000000" stroke-width="0.581" stroke-linecap="round" stroke-linejoin="round" d="M236.114,267.589
			c2.817,4.7,9.25,8.764,13.235,12.872c4.436,4.579,9.391,9.005,14.142,12.959"/>
		<path fill="#FFB300" d="M475.946,339.223c0,0,50.382-59.374,116.417-108.449c0,0,11.512-8.155,22.07,2.823
			c0,0,10.64,11.739,1.635,21.915c0,0-41.629,44.878-124.07,100.188"/>
		<path fill="none" stroke="#000000" stroke-width="0.918" stroke-linecap="round" stroke-linejoin="round" d="M475.946,339.223
			c0,0,50.382-59.374,116.417-108.449c0,0,11.512-8.155,22.07,2.823c0,0,10.64,11.739,1.635,21.915
			c0,0-41.629,44.878-124.07,100.188"/>
		<path fill="#FFFFFF" d="M596.529,235.146L411.101,406.787l190.131-165.354c0,0,3.602-3.622,1.321-6.387
			C600.266,232.278,596.529,235.146,596.529,235.146"/>
		<path fill="none" stroke="#000000" stroke-width="0.581" stroke-linecap="round" stroke-linejoin="round" d="M615.867,243.549
			c-0.21-4.132-3.521-7.674-8.6-8.37c-4.179-0.569-14.869,5.073-18.476,6.965c-5.119,2.682-8.035,6.054-12.546,9.688
			c-6.406,5.167-11.306,11.51-17.307,17.052c-5.734,5.305-12.42,9.573-18.613,14.56c-26.102,21.004-51.372,45.416-68.195,65.021
			c0,0-7.888,7.388-10.376,9.698"/>
		<path fill="none" stroke="#000000" stroke-width="0.581" stroke-linecap="round" stroke-linejoin="round" d="M552.272,268.021
			c34.539-30.554,48.611-38.273,56.473-37.812"/>
		<path fill="none" stroke="#000000" stroke-width="0.581" stroke-linecap="round" stroke-linejoin="round" d="M613.452,245.208
			c3.453,7.655-8.729,17.718-15.348,22.563c-13.556,9.946-28.969,19.61-41.15,31.36c0,0-5.621,6.832-14.037,12.511"/>
		<path fill="none" stroke="#000000" stroke-width="0.581" stroke-linecap="round" stroke-linejoin="round" d="M565.5,271.247
			c4.984-6.785,10.047-9.926,20.138-16.73c6.303-4.261,13.626-14.222,18.019-11.707c12.995,7.446,0.312,14.643-4.991,21.458"/>
		<path fill="none" stroke="#000000" stroke-width="0.581" stroke-linecap="round" stroke-linejoin="round" d="M562.85,287.065
			c-7.406,5.575-8.685,6.509-15.769,12.593c-6.896,5.939-17.868,19.339-23.635,25.632c-7.235,7.91-17.956,13.102-25.876,20.426
			c-12.252,11.333-27.236,21.221-40.629,30.547"/>
		<path fill="none" stroke="#000000" stroke-width="0.581" stroke-linecap="round" stroke-linejoin="round" d="M557.021,283.89
			c-6.765,1.683-12.262,8.877-17.145,13.404c-7.122,6.603-13.65,13.622-21.049,19.974c-10.78,9.271-21.496,17.838-32.566,26.542
			c-6.324,4.966-13.889,8.401-19.526,14.075c-3.928,3.95-23.966,17.832-27.725,23.252l-12.938,10.707"/>
		<path fill="none" stroke="#000000" stroke-width="0.581" stroke-linecap="round" stroke-linejoin="round" d="M444.186,379.998
			c-8.237,9.146-15.467,11.454-20.259,15.783c-4.816,4.354-18.858,12.365-23.77,16.588"/>
		<path fill="none" stroke="#000000" stroke-width="0.581" stroke-linecap="round" stroke-linejoin="round" d="M483.451,350.48
			c-11.814,8.188-22.503,19.369-34.746,26.664"/>
		<path fill="none" stroke="#000000" stroke-width="0.581" stroke-linecap="round" stroke-linejoin="round" d="M523.409,329.657
			c7.369-5.22,39.284-29.082,50.043-39.667c0,0,9.331-7.025,10.971-8.853"/>
		<path fill="none" stroke="#000000" stroke-width="0.581" stroke-linecap="round" stroke-linejoin="round" d="M562.85,287.065
			c3.687-2.215,1.231-3.548,7.09-8.199c2.125-1.706,6.241-8.22,8.896-10.942c3.479-3.565,15.218-16.913,20.036-16.297
			c0.873,7.014-18.596,22.896-22.418,26.875"/>
		<path fill="none" stroke="#000000" stroke-width="0.581" stroke-linecap="round" stroke-linejoin="round" d="M483.473,350.92
			c2.808-1.287,4.371-4.672,6.588-6.779c2.815-2.67,6.278-4.864,9.711-6.729c9.5-5.17,12.449-7.354,18.858-15.786
			c-0.254-0.043,3.485-2.894,3.363-3.104c4.496-3.666,9.181-6.694,13.657-12.59"/>
		<path fill="none" stroke="#000000" stroke-width="0.581" stroke-linecap="round" stroke-linejoin="round" d="M394.888,427.894"/>
		<path fill="none" stroke="#000000" stroke-width="0.581" stroke-linecap="round" stroke-linejoin="round" d="M453.277,379.084
			c-19.223,15.387-24.155,15.712-28.71,19.381c-4.278,3.469-7.813,7.832-12.345,11.011c-4.305,3.031-9.101,4.872-12.927,8.567"/>
		<path fill="none" stroke="#000000" stroke-width="0.581" stroke-linecap="round" stroke-linejoin="round" d="M552.349,267.589
			c-2.816,4.7-9.253,8.764-13.237,12.872c-4.437,4.579-9.392,9.005-14.14,12.959"/>
		<g opacity="0.4">
			<g>
				<defs>
					<rect id="SVGID_4_" x="256.083" y="192.172" width="252" height="130.089"/>
				</defs>
				<clipPath id="SVGID_5_">
					<use xlink:href="#SVGID_4_"  overflow="visible"/>
				</clipPath>
				<path clip-path="url(#SVGID_5_)" fill="none" stroke="#000000" stroke-width="3.394" d="M315.322,298.857v-29.571h33.594v17.673
					l4.021,4.022h8.575l4.024-4.022v-63.336h-10.5V195.98h51.439v27.643h-7.349v75.233l-19.594,19.594h-44.618L315.322,298.857z
					 M335.794,315.478h43.04l17.143-17.146v-77.683h7.522v-21.694h-45.485v21.694h10.496v67.185l-6.125,5.951h-10.318l-6.126-5.951
					v-15.572h-27.644v25.72L335.794,315.478z M322.145,296.932v-20.995h19.946v13.998l7.698,7.697h14.874l7.521-7.524V216.8h-10.323
					v-13.996h37.965V216.8h-7.348v80.132l-16.272,16.095h-37.79L322.145,296.932z"/>
				<path clip-path="url(#SVGID_5_)" fill="none" stroke="#000000" stroke-width="3.394" d="M408.922,318.452v-27.469h7.348v-67.361
					h-7.348v-27.64h75.761l19.592,19.594v31.492l-8.047,8.05l8.047,8.046v35.691l-19.592,19.597H408.922z M483.455,315.476
					l17.844-17.843v-33.243l-9.096-9.1l9.096-9.098v-29.393l-17.844-17.843h-71.558v21.689h7.173v73.141h-7.173v21.689H483.455z
					 M415.742,311.627v-13.995h7.177v-80.833h-7.177v-13.994h65.612l16.098,16.095v25.02l-11.024,11.023l11.024,11.022v29.569
					l-16.098,16.093H415.742z M469.808,248.117l7.522-7.526v-16.268l-7.522-7.524h-26.594v31.318H469.808z M469.808,297.632
					l7.522-7.526v-20.468l-7.522-7.525h-26.594v35.519H469.808z M446.89,244.267v-23.621h20.468l6.3,6.303v11.023l-6.3,6.295H446.89
					z M446.89,293.786v-27.998h20.468l6.3,6.297v15.4l-6.3,6.301H446.89z M466.658,241.295l4.025-4.024v-9.624l-4.025-4.025h-16.796
					v17.673H466.658z M466.658,290.983l4.025-4.026v-14.174l-4.025-4.024h-16.796v22.224H466.658z"/>
				<path clip-path="url(#SVGID_5_)" fill="none" stroke="#000000" stroke-width="3.394" d="M259.892,238.376v-11.099h32.967v11.099
					h-8.813v-2.287h-2.285v21.475h2.285v8.761h-15.395v-8.761h2.343v-21.475h-2.343v2.287H259.892z M267.701,237.482v-2.341h4.242
					v23.316h-2.346v6.917h13.557v-6.917h-2.342v-23.316h4.238v2.341h6.862v-9.258h-31.07v9.258H267.701z M262.067,236.258v-6.806
					h28.674v6.806h-4.519v-2.341h-6.584v25.769h2.292v4.461h-11.104v-4.461h2.343v-25.769h-6.693v2.341H262.067z"/>
				<path clip-path="url(#SVGID_5_)" fill="none" stroke="#000000" stroke-width="3.394" d="M295.592,266.325v-8.761h2.343v-21.475
					h-2.343v-8.812h15.394v8.812h-2.339v5.354h7.64v-5.354h-2.396v-8.812h15.449v8.812h-2.287v21.475h2.287v8.761H313.89v-8.761
					h2.396v-6.526h-7.64v6.526h2.339v8.761H295.592z M310.037,265.375v-6.917h-2.341v-8.368h9.539v8.368h-2.345v6.917h13.554v-6.917
					h-2.397v-23.316h2.397v-6.917H314.89v6.917h2.345v7.252h-9.539v-7.252h2.341v-6.917h-13.495v6.917h2.287v23.316h-2.287v6.917
					H310.037z M297.767,264.147v-4.461h2.287v-25.769h-2.287v-4.465h11.101v4.465h-2.343v9.646h11.881v-9.646h-2.341v-4.465h11.155
					v4.465h-2.342v25.769h2.342v4.461h-11.155v-4.461h2.341v-10.823h-11.881v10.823h2.343v4.461H297.767z"/>
				<path clip-path="url(#SVGID_5_)" fill="none" stroke="#000000" stroke-width="3.394" d="M332.851,266.325v-8.761h2.345v-21.475
					h-2.345v-8.812h28.672v10.374h-8.757v-1.563h-6.86v6.305h1.563v-1.508h8.813v11.826h-8.813v-1.507h-1.563v6.359h6.86v-1.616
					h8.757v10.376H332.851z M360.576,265.375v-8.479h-6.916v1.563h-8.702v-8.256h3.458v1.562h6.916v-9.929h-6.916v1.562h-3.458
					v-8.255h8.702v1.56h6.916v-8.477h-26.775v6.917h2.287v23.316h-2.287v6.917H360.576z M335.029,264.147v-4.461h2.286v-25.769
					h-2.286v-4.465h24.373v6.024h-4.515v-1.559h-11.099v10.652h5.854v-1.563h4.46v7.584h-4.46v-1.558h-5.854v10.653h11.099v-1.565
					h4.515v6.026H335.029z"/>
				<path clip-path="url(#SVGID_5_)" d="M315.322,298.857v-29.571h33.594v17.673l4.021,4.022h8.575l4.024-4.022v-63.336h-10.5
					V195.98h51.439v27.643h-7.349v75.233l-19.594,19.594h-44.618L315.322,298.857z M335.794,315.478h43.04l17.143-17.146v-77.683
					h7.522v-21.694h-45.485v21.694h10.496v67.185l-6.125,5.951h-10.318l-6.126-5.951v-15.572h-27.644v25.72L335.794,315.478z
					 M322.145,296.932v-20.995h19.946v13.998l7.698,7.697h14.874l7.521-7.524V216.8h-10.323v-13.996h37.965V216.8h-7.348v80.132
					l-16.272,16.095h-37.79L322.145,296.932z"/>
				<path clip-path="url(#SVGID_5_)" d="M408.922,318.452v-27.469h7.348v-67.361h-7.348v-27.64h75.761l19.592,19.594v31.492
					l-8.047,8.05l8.047,8.046v35.691l-19.592,19.597H408.922z M483.455,315.476l17.844-17.843v-33.243l-9.096-9.1l9.096-9.098
					v-29.393l-17.844-17.843h-71.558v21.689h7.173v73.141h-7.173v21.689H483.455z M415.742,311.627v-13.995h7.177v-80.833h-7.177
					v-13.994h65.612l16.098,16.095v25.02l-11.024,11.023l11.024,11.022v29.569l-16.098,16.093H415.742z M469.808,248.117
					l7.522-7.526v-16.268l-7.522-7.524h-26.594v31.318H469.808z M469.808,297.632l7.522-7.526v-20.468l-7.522-7.525h-26.594v35.519
					H469.808z M446.89,244.267v-23.621h20.468l6.3,6.303v11.023l-6.3,6.295H446.89z M446.89,293.786v-27.998h20.468l6.3,6.297v15.4
					l-6.3,6.301H446.89z M466.658,241.295l4.025-4.024v-9.624l-4.025-4.025h-16.796v17.673H466.658z M466.658,290.983l4.025-4.026
					v-14.174l-4.025-4.024h-16.796v22.224H466.658z"/>
				<path clip-path="url(#SVGID_5_)" d="M259.892,238.376v-11.099h32.967v11.099h-8.813v-2.287h-2.285v21.475h2.285v8.761h-15.395
					v-8.761h2.343v-21.475h-2.343v2.287H259.892z M262.067,236.258v-6.806h28.674v6.806h-4.519v-2.341h-6.584v25.769h2.292v4.461
					h-11.104v-4.461h2.343v-25.769h-6.693v2.341H262.067z"/>
				<path clip-path="url(#SVGID_5_)" d="M295.592,266.325v-8.761h2.343v-21.475h-2.343v-8.812h15.394v8.812h-2.339v5.354h7.64
					v-5.354h-2.396v-8.812h15.449v8.812h-2.287v21.475h2.287v8.761H313.89v-8.761h2.396v-6.526h-7.64v6.526h2.339v8.761H295.592z
					 M297.767,264.147v-4.461h2.287v-25.769h-2.287v-4.465h11.101v4.465h-2.343v9.646h11.881v-9.646h-2.341v-4.465h11.155v4.465
					h-2.342v25.769h2.342v4.461h-11.155v-4.461h2.341v-10.823h-11.881v10.823h2.343v4.461H297.767z"/>
				<path clip-path="url(#SVGID_5_)" d="M332.851,266.325v-8.761h2.345v-21.475h-2.345v-8.812h28.672v10.374h-8.757v-1.563h-6.86
					v6.305h1.563v-1.508h8.813v11.826h-8.813v-1.507h-1.563v6.359h6.86v-1.616h8.757v10.376H332.851z M335.029,264.147v-4.461h2.286
					v-25.769h-2.286v-4.465h24.373v6.024h-4.515v-1.559h-11.099v10.652h5.854v-1.563h4.46v7.584h-4.46v-1.558h-5.854v10.653h11.099
					v-1.565h4.515v6.026H335.029z"/>
				<polygon clip-path="url(#SVGID_5_)" points="322.145,296.932 322.145,275.937 342.091,275.937 342.091,289.935 349.789,297.632 
					364.663,297.632 372.185,290.108 372.185,216.8 361.861,216.8 361.861,202.804 399.826,202.804 399.826,216.8 392.479,216.8 
					392.479,296.932 376.206,313.026 338.416,313.026 				"/>
				<path clip-path="url(#SVGID_5_)" d="M415.748,311.627v-13.995h7.171V216.8h-7.171v-13.996h65.606l16.098,16.095v25.019
					l-11.024,11.023l11.024,11.023v29.571l-16.098,16.092H415.748z M469.808,248.118l7.522-7.525v-16.269l-7.522-7.524h-26.594
					v31.318H469.808z M469.808,297.632l7.522-7.524V269.64l-7.522-7.528h-26.594v35.52H469.808z"/>
				<polygon clip-path="url(#SVGID_5_)" points="262.067,236.258 262.067,229.452 290.741,229.452 290.741,236.258 286.223,236.258 
					286.223,233.917 279.638,233.917 279.638,259.686 281.93,259.686 281.93,264.147 270.825,264.147 270.825,259.686 
					273.168,259.686 273.168,233.917 266.476,233.917 266.476,236.258 				"/>
				<polygon clip-path="url(#SVGID_5_)" points="297.767,264.147 297.767,259.686 300.054,259.686 300.054,233.917 297.767,233.917 
					297.767,229.452 308.868,229.452 308.868,233.917 306.525,233.917 306.525,243.563 318.406,243.563 318.406,233.917 
					316.065,233.917 316.065,229.452 327.22,229.452 327.22,233.917 324.878,233.917 324.878,259.686 327.22,259.686 
					327.22,264.147 316.065,264.147 316.065,259.686 318.406,259.686 318.406,248.862 306.525,248.862 306.525,259.686 
					308.868,259.686 308.868,264.147 				"/>
				<polygon clip-path="url(#SVGID_5_)" points="335.029,264.147 335.029,259.686 337.315,259.686 337.315,233.917 335.029,233.917 
					335.029,229.452 359.402,229.452 359.402,235.476 354.887,235.476 354.887,233.917 343.788,233.917 343.788,244.569 
					349.642,244.569 349.642,243.006 354.103,243.006 354.103,250.59 349.642,250.59 349.642,249.033 343.788,249.033 
					343.788,259.686 354.887,259.686 354.887,258.121 359.402,258.121 359.402,264.147 				"/>
				<path clip-path="url(#SVGID_5_)" d="M343.784,249.033h5.861v1.56h4.46v-7.586h-3.811v5.041h-4.463v-1.559h-5.859v10.655h3.812
					V249.033z M343.784,233.917h11.104v1.559h4.515v-6.024h-3.811v3.48h-4.518v-1.56h-11.102v10.652h3.812V233.917z
					 M359.402,258.123h-3.811v3.479h-20.562v2.544h24.373V258.123z M368.368,214.257h-6.507v2.543h6.507V214.257z M443.214,216.8
					h25.318l-2.538-2.543h-26.591v31.32h3.811V216.8z M443.214,262.111h25.318l-2.538-2.541h-26.591v35.52h3.811V262.111z
					 M419.105,214.257h-3.363v2.543h3.363V214.257z M338.277,275.935v11.458l7.7,7.696h1.27l-5.156-5.155v-14H338.277z
					 M306.525,233.917h2.343v-4.465h-3.812v1.921h-2.346v9.65h3.814V233.917z M497.452,218.898l-16.098-16.093h-1.271l13.554,13.552
					v25.02L482.615,252.4l11.022,11.019v29.57l-16.097,16.1h-61.796v2.538h65.609l16.098-16.093v-29.569l-11.024-11.025
					l11.024-11.02V218.898z M323.408,231.373h-2.343v25.771h2.343v4.458h-7.343v2.544h11.152v-4.461h-2.34v-25.769h2.34v-4.465
					h-3.809V231.373z M396.014,214.257h-7.349v80.133l-16.272,16.092h-36.546l2.572,2.543h37.788l16.272-16.095V216.8h7.35v-13.995
					h-3.814V214.257z M262.665,233.714h-0.598v2.544h4.408v-2.341h2.88v-2.544h-6.69V233.714z M302.71,257.144h2.346v4.458h-7.291
					v2.544h11.102v-4.461h-2.343v-10.823h8.071v-2.541H302.71V257.144z M286.931,233.714h-4.521v-2.341h-6.583v25.771h2.287v4.458
					h-7.288v2.544h11.104v-4.461h-2.292v-25.769h6.584v2.341h4.519v-6.806h-3.811V233.714z"/>
			</g>
		</g>
		<path fill="none" stroke="#000000" stroke-width="3.394" d="M313.855,296.659v-29.572h33.592v17.673l4.024,4.022h8.575
			l4.024-4.022v-63.334H353.57v-27.644h51.44v27.644h-7.351v75.233l-19.592,19.594h-44.617L313.855,296.659z M334.327,313.278
			h43.041l17.143-17.145v-77.685h7.522v-21.693h-45.486v21.693h10.497v67.187l-6.124,5.95h-10.319l-6.127-5.95v-15.572H316.83
			v25.719L334.327,313.278z M320.681,294.732v-20.995h19.946v13.999l7.696,7.697h14.874l7.52-7.523v-73.308h-10.321v-13.996h37.966
			v13.996h-7.348v80.131l-16.271,16.096h-37.793L320.681,294.732z"/>
		<path fill="none" stroke="#000000" stroke-width="3.394" d="M407.458,316.254v-27.471h7.347v-67.359h-7.347v-27.641h75.758
			l19.594,19.594v31.492l-8.05,8.048l8.05,8.047v35.692l-19.594,19.597H407.458z M481.986,313.277l17.847-17.843v-33.243l-9.096-9.1
			l9.096-9.1v-29.391l-17.847-17.844H410.43v21.693h7.175v73.137h-7.175v21.691H481.986z M414.279,309.428v-13.994h7.176v-80.833
			h-7.176v-13.994h65.609l16.1,16.095v25.019l-11.025,11.023l11.025,11.022v29.57l-16.1,16.092H414.279z M468.342,245.918
			l7.522-7.526v-16.268l-7.522-7.524h-26.594v31.318H468.342z M468.342,295.434l7.522-7.526V267.44l-7.522-7.525h-26.594v35.519
			H468.342z M445.421,242.068v-23.619h20.472l6.299,6.301v11.023l-6.299,6.295H445.421z M445.421,291.586v-27.998h20.472
			l6.299,6.299v15.399l-6.299,6.3H445.421z M465.192,239.097l4.023-4.024v-9.624l-4.023-4.025h-16.795v17.673H465.192z
			 M465.192,288.783l4.023-4.024v-14.174l-4.023-4.024h-16.795v22.222H465.192z"/>
		<path fill="none" stroke="#000000" stroke-width="3.394" d="M258.427,236.178v-11.099h32.967v11.099h-8.814v-2.288h-2.285v21.476
			h2.285v8.761h-15.395v-8.761h2.343V233.89h-2.343v2.288H258.427z M266.236,235.284v-2.341h4.241v23.315h-2.345v6.918h13.557
			v-6.918h-2.343v-23.315h4.24v2.341h6.862v-9.259h-31.071v9.259H266.236z M260.602,234.06v-6.807h28.673v6.807h-4.517v-2.342
			h-6.586v25.77h2.292v4.461H269.36v-4.461h2.343v-25.77h-6.693v2.342H260.602z"/>
		<path fill="none" stroke="#000000" stroke-width="3.394" d="M294.126,264.126v-8.761h2.343V233.89h-2.343v-8.811h15.392v8.811
			h-2.339v5.353h7.64v-5.353h-2.398v-8.811h15.451v8.811h-2.286v21.476h2.286v8.761h-15.451v-8.761h2.398v-6.526h-7.64v6.526h2.339
			v8.761H294.126z M308.572,263.176v-6.918h-2.341v-8.367h9.54v8.367h-2.345v6.918h13.555v-6.918h-2.398v-23.315h2.398v-6.918
			h-13.555v6.918h2.345v7.252h-9.54v-7.252h2.341v-6.918h-13.496v6.918h2.287v23.315h-2.287v6.918H308.572z M296.302,261.949v-4.461
			h2.286v-25.77h-2.286v-4.465h11.101v4.465h-2.343v9.647h11.882v-9.647h-2.343v-4.465h11.155v4.465h-2.341v25.77h2.341v4.461
			h-11.155v-4.461h2.343v-10.824H305.06v10.824h2.343v4.461H296.302z"/>
		<path fill="none" stroke="#000000" stroke-width="3.394" d="M331.386,264.126v-8.761h2.346V233.89h-2.346v-8.811h28.67v10.373
			h-8.754v-1.562h-6.86v6.305h1.56v-1.508h8.815v11.827h-8.815v-1.507h-1.56v6.359h6.86v-1.616h8.754v10.376H331.386z
			 M359.108,263.176v-8.479h-6.915v1.562h-8.701v-8.254h3.458v1.562h6.916v-9.93h-6.916v1.562h-3.458v-8.254h8.701v1.56h6.915
			v-8.478h-26.773v6.918h2.286v23.315h-2.286v6.918H359.108z M333.563,261.949v-4.461h2.287v-25.77h-2.287v-4.465h24.377v6.025
			h-4.516v-1.56h-11.105v10.652h5.857v-1.562h4.463v7.584h-4.463v-1.558h-5.857v10.653h11.105v-1.565h4.516v6.026H333.563z"/>
		<path fill="#FFFFFF" d="M313.855,296.659v-29.572h33.592v17.673l4.024,4.022h8.575l4.024-4.022v-63.334H353.57v-27.644h51.44
			v27.644h-7.351v75.233l-19.592,19.594h-44.617L313.855,296.659z M334.327,313.278h43.041l17.143-17.145v-77.685h7.522v-21.693
			h-45.486v21.693h10.497v67.187l-6.124,5.95h-10.319l-6.127-5.95v-15.572H316.83v25.719L334.327,313.278z M320.681,294.732v-20.995
			h19.946v13.999l7.696,7.697h14.874l7.52-7.523v-73.308h-10.321v-13.996h37.966v13.996h-7.348v80.131l-16.271,16.096h-37.793
			L320.681,294.732z"/>
		<path fill="#FFFFFF" d="M407.458,316.254v-27.471h7.347v-67.359h-7.347v-27.641h75.758l19.594,19.594v31.492l-8.05,8.048
			l8.05,8.047v35.692l-19.594,19.597H407.458z M481.986,313.277l17.847-17.843v-33.243l-9.096-9.1l9.096-9.1v-29.391l-17.847-17.844
			H410.43v21.693h7.175v73.137h-7.175v21.691H481.986z M414.279,309.428v-13.994h7.176v-80.833h-7.176v-13.994h65.609l16.1,16.095
			v25.019l-11.025,11.023l11.025,11.022v29.57l-16.1,16.092H414.279z M468.342,245.918l7.522-7.526v-16.268l-7.522-7.524h-26.594
			v31.318H468.342z M468.342,295.434l7.522-7.526V267.44l-7.522-7.525h-26.594v35.519H468.342z M445.421,242.068v-23.619h20.472
			l6.299,6.301v11.023l-6.299,6.295H445.421z M445.421,291.586v-27.998h20.472l6.299,6.299v15.399l-6.299,6.3H445.421z
			 M465.192,239.097l4.023-4.024v-9.624l-4.023-4.025h-16.795v17.673H465.192z M465.192,288.783l4.023-4.024v-14.174l-4.023-4.024
			h-16.795v22.222H465.192z"/>
		<path fill="#FFFFFF" d="M258.427,236.178v-11.099h32.967v11.099h-8.814v-2.288h-2.285v21.476h2.285v8.761h-15.395v-8.761h2.343
			V233.89h-2.343v2.288H258.427z M260.602,234.06v-6.807h28.673v6.807h-4.517v-2.342h-6.586v25.77h2.292v4.461H269.36v-4.461h2.343
			v-25.77h-6.693v2.342H260.602z"/>
		<path fill="#FFFFFF" d="M294.126,264.126v-8.761h2.343V233.89h-2.343v-8.811h15.392v8.811h-2.339v5.353h7.64v-5.353h-2.398v-8.811
			h15.451v8.811h-2.286v21.476h2.286v8.761h-15.451v-8.761h2.398v-6.526h-7.64v6.526h2.339v8.761H294.126z M296.302,261.949v-4.461
			h2.286v-25.77h-2.286v-4.465h11.101v4.465h-2.343v9.647h11.882v-9.647h-2.343v-4.465h11.155v4.465h-2.341v25.77h2.341v4.461
			h-11.155v-4.461h2.343v-10.824H305.06v10.824h2.343v4.461H296.302z"/>
		<path fill="#FFFFFF" d="M331.386,264.126v-8.761h2.346V233.89h-2.346v-8.811h28.67v10.373h-8.754v-1.562h-6.86v6.305h1.56v-1.508
			h8.815v11.827h-8.815v-1.507h-1.56v6.359h6.86v-1.616h8.754v10.376H331.386z M333.563,261.949v-4.461h2.287v-25.77h-2.287v-4.465
			h24.377v6.025h-4.516v-1.56h-11.105v10.652h5.857v-1.562h4.463v7.584h-4.463v-1.558h-5.857v10.653h11.105v-1.565h4.516v6.026
			H333.563z"/>
		<polygon fill="#FE000D" points="320.681,294.732 320.681,273.737 340.627,273.737 340.627,287.736 348.323,295.433 
			363.197,295.433 370.717,287.91 370.717,214.602 360.396,214.602 360.396,200.605 398.361,200.605 398.361,214.602 
			391.014,214.602 391.014,294.732 374.742,310.828 336.949,310.828 		"/>
		<path fill="#FE000D" d="M414.279,309.43v-13.998h7.176v-80.831h-7.176v-13.996h65.609l16.1,16.095v25.02l-11.025,11.022
			l11.025,11.023v29.571l-16.1,16.093H414.279z M468.339,245.919l7.525-7.525v-16.269l-7.525-7.524h-26.591v31.318H468.339z
			 M468.339,295.432l7.525-7.522v-20.468l-7.525-7.528h-26.591v35.519H468.339z"/>
		<polygon fill="#FE000D" points="260.602,234.06 260.602,227.253 289.274,227.253 289.274,234.06 284.757,234.06 284.757,231.718 
			278.171,231.718 278.171,257.487 280.463,257.487 280.463,261.949 269.36,261.949 269.36,257.487 271.703,257.487 
			271.703,231.718 265.01,231.718 265.01,234.06 		"/>
		<polygon fill="#FE000D" points="296.302,261.949 296.302,257.487 298.587,257.487 298.587,231.718 296.302,231.718 
			296.302,227.253 307.402,227.253 307.402,231.718 305.06,231.718 305.06,241.365 316.941,241.365 316.941,231.718 
			314.598,231.718 314.598,227.253 325.753,227.253 325.753,231.718 323.412,231.718 323.412,257.487 325.753,257.487 
			325.753,261.949 314.598,261.949 314.598,257.487 316.941,257.487 316.941,246.664 305.06,246.664 305.06,257.487 
			307.402,257.487 307.402,261.949 		"/>
		<polygon fill="#FE000D" points="333.563,261.949 333.563,257.487 335.849,257.487 335.849,231.718 333.563,231.718 
			333.563,227.253 357.939,227.253 357.939,233.278 353.424,233.278 353.424,231.718 342.319,231.718 342.319,242.37 
			348.176,242.37 348.176,240.808 352.639,240.808 352.639,248.392 348.176,248.392 348.176,246.834 342.319,246.834 
			342.319,257.487 353.424,257.487 353.424,255.922 357.939,255.922 357.939,261.949 		"/>
		<path fill="#BF0000" d="M342.319,246.834h5.857v1.56h4.463v-7.586h-3.815v5.041h-4.459v-1.559h-5.859v10.655h3.813V246.834z
			 M342.319,231.717h11.105v1.561h4.516v-6.025h-3.815v3.481h-4.516v-1.559h-11.104v10.652h3.813V231.717z M357.939,255.924h-3.815
			v3.479h-20.56v2.546h24.375V255.924z M366.903,212.058h-6.508v2.543h6.508V212.058z M441.748,214.601h25.32l-2.538-2.543h-26.592
			v31.321h3.81V214.601z M441.748,259.912h25.32l-2.538-2.54h-26.592v35.52h3.81V259.912z M417.642,212.058h-3.362v2.543h3.362
			V212.058z M336.812,273.737v11.458l7.699,7.697h1.272l-5.158-5.156v-13.999H336.812z M305.058,231.717h2.343v-4.464h-3.81v1.922
			h-2.347v9.648h3.813V231.717z M495.986,216.699l-16.095-16.093h-1.271l13.555,13.553v25.02l-11.025,11.022l11.025,11.02v29.569
			l-16.1,16.1h-61.796v2.537h65.612l16.095-16.092v-29.569l-11.026-11.025l11.026-11.021V216.699z M321.941,229.175h-2.343v25.771
			h2.343v4.457h-7.345v2.546h11.157v-4.463h-2.341v-25.769h2.341v-4.464h-3.812V229.175z M394.548,212.058H387.2v80.134
			l-16.272,16.093H334.38l2.569,2.543h37.793l16.271-16.095v-80.131h7.348v-13.994h-3.813V212.058z M261.198,231.516h-0.597v2.542
			h4.409v-2.341h2.879v-2.542h-6.691V231.516z M301.245,254.946h2.347v4.457H296.3v2.546h11.101v-4.463h-2.343v-10.822h8.072v-2.541
			h-11.885V254.946z M285.464,231.516h-4.521v-2.341h-6.582v25.771h2.286v4.457h-7.287v2.546h11.103v-4.463h-2.292v-25.769h6.586
			v2.341h4.517v-6.805h-3.811V231.516z"/>
		
			<rect x="367.865" y="332.818" transform="matrix(0.7071 -0.7071 0.7071 0.7071 -137.9 382.4759)" fill="#FFFFFF" width="49.767" height="49.767"/>
		<polyline fill="none" stroke="#B5B5B5" stroke-width="1.495" points="392.751,322.512 428.252,357.98 393.062,393.17 		"/>
		<path fill="#FFFFD9" d="M412.284,392.299c0,9.986-8.084,18.083-18.053,18.083c-9.971,0-18.052-8.097-18.052-18.083
			c0-9.99,8.081-18.08,18.052-18.08C404.2,374.219,412.284,382.309,412.284,392.299"/>
		<path fill="none" stroke="#000000" stroke-width="1.836" d="M412.284,392.299c0,9.986-8.084,18.083-18.053,18.083
			c-9.971,0-18.052-8.097-18.052-18.083c0-9.99,8.081-18.08,18.052-18.08C404.2,374.219,412.284,382.309,412.284,392.299z"/>
		<path fill="#FFFFD9" d="M412.284,392.299c0,9.986-8.084,18.083-18.053,18.083c-9.971,0-18.052-8.097-18.052-18.083
			c0-9.99,8.081-18.08,18.052-18.08C404.2,374.219,412.284,382.309,412.284,392.299"/>
		<g opacity="0.7">
			<g>
				<defs>
					<rect id="SVGID_6_" x="382.596" y="380.053" width="29.688" height="30.329"/>
				</defs>
				<clipPath id="SVGID_7_">
					<use xlink:href="#SVGID_6_"  overflow="visible"/>
				</clipPath>
				<path clip-path="url(#SVGID_7_)" fill="#CBBCA7" d="M407.511,380.051c0.641,3.971,0.21,8.365-1.467,12.639
					c-4.2,10.694-14.63,16.637-23.448,13.433c3.143,2.656,7.203,4.26,11.636,4.26c9.969,0,18.053-8.097,18.053-18.083
					C412.284,387.574,410.474,383.271,407.511,380.051"/>
			</g>
		</g>
		<path fill="#971816" d="M402.854,391.455c-0.061-0.016-0.141-0.045-0.215-0.068c-0.196-0.108-0.526-0.154-0.911-0.221
			c-0.366-0.063-0.706-0.014-0.899,0.028c0.082-0.206-0.351-0.619-0.501-0.745c-0.156-0.131-0.554-0.543-0.741-0.674
			c-0.028-0.021-0.055-0.035-0.088-0.054c-0.02-0.084-0.271-0.172-0.414-0.258c-0.153-0.092-0.671-0.146-0.636,0
			c0.031,0.117,0.539,0.463,0.711,0.563c0.092,0.24,0.319,0.518,0.614,0.729c0.297,0.212,0.641,0.458,0.81,0.58
			c-0.031,0.054-0.057,0.131-0.056,0.237c0.006,0.237,0.674,0.092,0.889,0.096c0.215,0.008,0.736,0.102,0.981,0.087
			c0.018-0.003,0.036-0.003,0.053-0.006c0.005,0.003,0.009,0.008,0.021,0.011c0.165,0.038,0.771,0.165,0.861,0.111
			C403.442,391.8,403.021,391.498,402.854,391.455 M403.557,389.916c-0.066-0.021-0.139-0.053-0.209-0.079
			c-0.189-0.125-0.52-0.191-0.9-0.278c-0.359-0.086-0.706-0.06-0.898-0.028c0.095-0.201-0.313-0.641-0.454-0.771
			c-0.15-0.143-0.52-0.576-0.699-0.72c-0.026-0.022-0.055-0.041-0.083-0.06c-0.018-0.085-0.263-0.186-0.403-0.283
			c-0.145-0.098-0.657-0.187-0.632-0.037c0.024,0.119,0.513,0.491,0.675,0.605c0.079,0.242,0.29,0.536,0.57,0.766
			c0.282,0.23,0.613,0.499,0.775,0.628c-0.034,0.053-0.07,0.128-0.074,0.234c-0.009,0.237,0.666,0.134,0.884,0.15
			c0.213,0.018,0.729,0.146,0.971,0.146c0.019,0,0.04-0.002,0.058-0.002c0.004,0.005,0.008,0.007,0.017,0.009
			c0.16,0.054,0.76,0.215,0.853,0.163C404.117,390.3,403.716,389.967,403.557,389.916 M404.078,388.506
			c-0.053-0.031-0.114-0.078-0.176-0.118c-0.149-0.156-0.438-0.277-0.767-0.433c-0.285-0.134-0.569-0.171-0.757-0.176
			c0.056-0.209-0.3-0.631-0.432-0.766c-0.145-0.146-0.488-0.597-0.664-0.748c-0.026-0.022-0.056-0.043-0.081-0.066
			c-0.016-0.084-0.254-0.196-0.386-0.296c-0.141-0.107-0.65-0.22-0.626-0.069c0.013,0.117,0.485,0.518,0.644,0.634
			c0.065,0.251,0.261,0.552,0.533,0.795c0.243,0.218,0.522,0.468,0.694,0.616c-0.04,0.047-0.074,0.117-0.097,0.213
			c-0.052,0.236,0.583,0.244,0.771,0.301c0.192,0.053,0.64,0.269,0.861,0.307c0.018,0.004,0.033,0.007,0.051,0.01
			c0.004,0.006,0.009,0.01,0.009,0.01c0.142,0.08,0.657,0.349,0.754,0.313C404.521,388.986,404.213,388.584,404.078,388.506
			 M404.751,387.166c-0.046-0.036-0.101-0.086-0.151-0.131c-0.129-0.167-0.387-0.312-0.684-0.49
			c-0.255-0.156-0.518-0.215-0.687-0.235c0.063-0.206-0.234-0.651-0.347-0.795c-0.12-0.161-0.409-0.637-0.561-0.8
			c-0.022-0.023-0.047-0.047-0.072-0.069c-0.005-0.089-0.22-0.219-0.337-0.329c-0.119-0.118-0.588-0.27-0.575-0.115
			c0.005,0.118,0.413,0.549,0.548,0.685c0.046,0.252,0.209,0.569,0.442,0.831c0.211,0.237,0.454,0.508,0.597,0.67
			c-0.035,0.043-0.074,0.111-0.101,0.203c-0.065,0.236,0.521,0.293,0.695,0.359c0.175,0.068,0.574,0.317,0.773,0.373
			c0.018,0.006,0.03,0.01,0.048,0.018c0.003,0.001,0.004,0.005,0.004,0.005c0.132,0.095,0.588,0.399,0.677,0.37
			C405.129,387.682,404.871,387.256,404.751,387.166 M405.494,385.479l-0.007,0.004c-0.143-0.113-0.331-0.225-0.548-0.354
			c-0.252-0.156-0.516-0.213-0.687-0.238c0.066-0.203-0.232-0.648-0.344-0.793c-0.12-0.16-0.41-0.637-0.563-0.799
			c-0.021-0.025-0.049-0.047-0.07-0.066c-0.004-0.092-0.219-0.222-0.335-0.336c-0.125-0.114-0.589-0.266-0.581-0.111
			c0.009,0.118,0.415,0.549,0.553,0.685c0.044,0.248,0.206,0.567,0.442,0.831c0.211,0.237,0.451,0.508,0.597,0.67
			c-0.039,0.045-0.076,0.109-0.101,0.201c-0.066,0.238,0.519,0.293,0.693,0.361c0.174,0.068,0.573,0.317,0.775,0.373
			c0.039,0.012,0.08,0.023,0.122,0.035c0.132,0.158,0.396,0.457,0.464,0.453c0.102-0.006-0.054-0.479-0.146-0.596
			C405.669,385.682,405.552,385.451,405.494,385.479 M406.476,384.701l-0.004,0.002c-0.104-0.123-0.251-0.25-0.413-0.395
			c-0.157-0.141-0.323-0.218-0.451-0.262c0.114-0.186-0.175-0.68-0.279-0.84c-0.115-0.164-0.373-0.658-0.514-0.832
			c-0.022-0.026-0.044-0.051-0.065-0.073c-0.003-0.09-0.206-0.233-0.313-0.352c-0.116-0.124-0.572-0.304-0.572-0.151
			c0,0.119,0.381,0.58,0.509,0.717c0.025,0.256,0.169,0.581,0.386,0.859c0.188,0.244,0.408,0.521,0.541,0.691
			c-0.037,0.043-0.072,0.111-0.105,0.217c-0.063,0.236,0.396,0.33,0.533,0.41c0.132,0.082,0.434,0.365,0.592,0.436
			c0.03,0.013,0.062,0.025,0.095,0.037c0.096,0.172,0.291,0.494,0.344,0.494c0.079,0-0.018-0.49-0.088-0.615
			C406.604,384.919,406.524,384.679,406.476,384.701 M407.291,383.983v0.004c-0.096-0.116-0.228-0.233-0.372-0.368
			c-0.144-0.131-0.29-0.203-0.407-0.242c0.101-0.173-0.153-0.636-0.251-0.784c-0.101-0.15-0.337-0.612-0.46-0.772
			c-0.018-0.023-0.037-0.045-0.058-0.068c-0.001-0.082-0.186-0.217-0.282-0.327c-0.103-0.118-0.51-0.284-0.516-0.142
			c0,0.112,0.343,0.537,0.457,0.667c0.025,0.237,0.153,0.54,0.346,0.802c0.172,0.227,0.366,0.481,0.487,0.641
			c-0.03,0.041-0.066,0.104-0.092,0.202c-0.058,0.22,0.354,0.31,0.476,0.384c0.12,0.076,0.392,0.338,0.53,0.398
			c0.027,0.018,0.059,0.031,0.085,0.039c0.087,0.163,0.259,0.459,0.311,0.459c0.07,0-0.019-0.457-0.074-0.572
			C407.41,384.188,407.336,383.963,407.291,383.983 M408.192,383.613l-0.007,0.005c-0.062-0.104-0.149-0.211-0.245-0.333
			c-0.102-0.121-0.209-0.193-0.297-0.236c0.098-0.127-0.054-0.522-0.113-0.65c-0.06-0.135-0.194-0.526-0.276-0.668
			c-0.013-0.021-0.024-0.041-0.037-0.058c0.004-0.071-0.125-0.194-0.189-0.292c-0.064-0.104-0.362-0.274-0.377-0.163
			c-0.013,0.089,0.207,0.468,0.281,0.581c0,0.191,0.065,0.449,0.188,0.677c0.109,0.196,0.234,0.421,0.313,0.562
			c-0.029,0.029-0.063,0.074-0.092,0.154c-0.066,0.171,0.243,0.282,0.331,0.355c0.083,0.071,0.268,0.304,0.368,0.371
			c0.021,0.014,0.041,0.027,0.062,0.037c0.053,0.136,0.153,0.395,0.193,0.398c0.052,0.007,0.03-0.367,0-0.465
			C408.26,383.788,408.226,383.6,408.192,383.613 M409.36,383.092l-0.004,0.005c-0.066-0.095-0.156-0.187-0.26-0.294
			c-0.096-0.11-0.196-0.169-0.28-0.199c0.07-0.133-0.109-0.506-0.175-0.623c-0.07-0.123-0.232-0.49-0.32-0.619
			c-0.013-0.018-0.025-0.036-0.041-0.055c0-0.066-0.125-0.174-0.195-0.264c-0.07-0.092-0.351-0.229-0.351-0.119
			c0,0.092,0.24,0.436,0.315,0.539c0.022,0.188,0.109,0.428,0.246,0.637c0.117,0.183,0.254,0.386,0.337,0.516
			c-0.021,0.031-0.046,0.08-0.062,0.158c-0.035,0.172,0.245,0.249,0.329,0.313c0.083,0.058,0.267,0.266,0.364,0.321
			c0.021,0.011,0.039,0.019,0.059,0.03c0.059,0.128,0.182,0.365,0.217,0.368c0.049,0-0.018-0.36-0.059-0.455
			C409.439,383.255,409.387,383.078,409.36,383.092 M402.313,393.508c-0.063-0.02-0.142-0.047-0.212-0.073
			c-0.196-0.108-0.53-0.154-0.916-0.219c-0.364-0.063-0.706-0.015-0.898,0.025c0.083-0.205-0.351-0.615-0.5-0.743
			c-0.158-0.132-0.552-0.54-0.741-0.673c-0.028-0.018-0.057-0.035-0.09-0.051c-0.021-0.087-0.27-0.177-0.414-0.258
			c-0.153-0.093-0.671-0.148-0.634,0c0.028,0.116,0.54,0.46,0.708,0.56c0.093,0.237,0.322,0.521,0.619,0.733
			c0.298,0.21,0.64,0.455,0.809,0.578c-0.029,0.054-0.055,0.13-0.055,0.234c0.004,0.238,0.675,0.093,0.886,0.098
			c0.215,0.005,0.736,0.101,0.981,0.086c0.018-0.003,0.034-0.003,0.055-0.004c0,0,0.011,0.005,0.019,0.007
			c0.163,0.044,0.772,0.169,0.861,0.111C402.898,393.853,402.476,393.549,402.313,393.508 M401.828,395.152
			c-0.064-0.009-0.144-0.027-0.218-0.042c-0.211-0.087-0.544-0.09-0.938-0.106c-0.368-0.014-0.699,0.078-0.886,0.142
			c0.053-0.214-0.426-0.569-0.592-0.675c-0.171-0.11-0.616-0.469-0.819-0.573c-0.03-0.016-0.062-0.029-0.093-0.042
			c-0.035-0.082-0.293-0.139-0.446-0.202c-0.162-0.073-0.684-0.064-0.628,0.079c0.044,0.111,0.59,0.387,0.772,0.468
			c0.12,0.225,0.386,0.474,0.705,0.646c0.32,0.174,0.693,0.375,0.877,0.473c-0.021,0.06-0.039,0.14-0.026,0.24
			c0.035,0.237,0.68,0.011,0.895-0.015c0.215-0.023,0.745,0.006,0.982-0.041c0.017-0.003,0.037-0.007,0.054-0.011
			c0,0,0.012,0.008,0.021,0.008c0.166,0.021,0.785,0.069,0.868,0C402.456,395.422,401.996,395.172,401.828,395.152 M397.467,396.341
			c0.141,0.211,0.426,0.441,0.759,0.584c0.359,0.158,0.785,0.343,0.956,0.419c-0.021,0.021-0.042,0.044-0.054,0.074
			c-0.099,0.257,0.003,0.351,0.003,0.351s0.436,0.104,1.021-0.078c0.416-0.127,0.76-0.221,0.999-0.369
			c0.083-0.034,0.17-0.077,0.233-0.103c0.183-0.066,0.72-0.457,0.641-0.517c-0.068-0.051-0.721,0.174-0.896,0.24
			c-0.009,0.003-0.018,0.01-0.024,0.014c-0.018,0-0.035,0.002-0.051,0.002c-0.236,0.018-0.791,0.194-1.006,0.229
			c-0.157,0.026-0.523,0-0.749,0.086c0.011-0.028,0.023-0.063,0.046-0.113c0.083-0.222-0.461-0.554-0.646-0.651
			c-0.179-0.094-0.647-0.414-0.862-0.501c-0.03-0.013-0.062-0.023-0.097-0.035c-0.037-0.079-0.304-0.112-0.461-0.166
			c-0.166-0.057-0.686-0.003-0.618,0.133C396.711,396.046,397.278,396.271,397.467,396.341 M397.165,398.315
			c0.163,0.197,0.472,0.391,0.816,0.504c0.394,0.124,0.86,0.27,1.021,0.319c-0.014,0.018-0.027,0.038-0.031,0.058
			c-0.05,0.241,0.059,0.303,0.059,0.303s0.433,0.016,0.968-0.238c0.377-0.175,0.694-0.313,0.898-0.482
			c0.074-0.046,0.148-0.095,0.21-0.129c0.161-0.089,0.615-0.513,0.53-0.553c-0.071-0.032-0.661,0.27-0.822,0.359
			c-0.01,0.005-0.013,0.009-0.013,0.009c-0.024,0.009-0.042,0.012-0.055,0.016c-0.225,0.054-0.732,0.302-0.929,0.366
			c-0.156,0.049-0.544,0.09-0.736,0.215c0.009-0.033,0.021-0.074,0.034-0.133c0.062-0.226-0.513-0.502-0.705-0.577
			c-0.189-0.074-0.693-0.343-0.912-0.409c-0.031-0.011-0.066-0.018-0.101-0.023c-0.049-0.074-0.312-0.079-0.478-0.116
			c-0.172-0.039-0.683,0.069-0.601,0.195C396.384,398.101,396.975,398.267,397.165,398.315 M397.567,404.227
			c0.177,0.113,0.456,0.187,0.75,0.187c0.308-0.003,0.662-0.004,0.822-0.007c0.021,0.085,0.067,0.107,0.067,0.107
			s0.368-0.012,0.807-0.258c0.306-0.175,0.562-0.312,0.729-0.471c0.059-0.041,0.123-0.087,0.171-0.117
			c0.131-0.088,0.491-0.479,0.412-0.506c-0.059-0.02-0.542,0.271-0.671,0.355c-0.009,0.005-0.013,0.011-0.019,0.013
			c-0.013,0.005-0.025,0.01-0.038,0.014c-0.186,0.062-0.601,0.299-0.763,0.365c-0.137,0.057-0.491,0.118-0.637,0.249
			c-0.096-0.146-0.517-0.204-0.666-0.21c-0.165-0.014-0.618-0.094-0.807-0.093c-0.023,0-0.052,0.004-0.081,0.007
			c-0.059-0.045-0.261,0.019-0.394,0.032c-0.144,0.011-0.512,0.221-0.42,0.3C396.91,404.259,397.405,404.24,397.567,404.227
			 M402.074,408.32c-0.044-0.012-0.136,0.035-0.222,0.076c-0.133,0.069-0.408,0.276-0.527,0.343
			c-0.104,0.062-0.423,0.177-0.466,0.289c-0.096-0.006-0.255,0.033-0.316,0.054c-0.091,0.025-0.34,0.075-0.441,0.114
			c-0.07,0.026-0.138,0.064-0.15,0.101c-0.098,0.059-0.204,0.146-0.161,0.162c0.045,0.012,0.269-0.053,0.4-0.091
			c0.087-0.008,0.188-0.031,0.288-0.065c0.154-0.055,0.326-0.116,0.421-0.148c0.03,0.032,0.066,0.032,0.066,0.032
			s0.291-0.074,0.58-0.289c0.195-0.146,0.367-0.266,0.463-0.377c0.092-0.065,0.287-0.277,0.236-0.281
			C402.224,408.238,402.153,408.272,402.074,408.32 M401.919,407.894c-0.042,0.017-0.083,0.031-0.125,0.047
			c-0.166,0.06-0.523,0.265-0.671,0.33c-0.141,0.061-0.564,0.164-0.598,0.3c-0.098-0.049-0.354-0.025-0.447-0.016
			c-0.114,0.02-0.428,0.035-0.55,0.058c-0.019,0.004-0.038,0.012-0.058,0.013c-0.04-0.013-0.173,0.045-0.261,0.065
			c-0.095,0.023-0.322,0.173-0.255,0.199c0.06,0.023,0.393-0.051,0.498-0.074c0.127,0.032,0.321,0.035,0.521-0.003
			c0.224-0.043,0.486-0.093,0.578-0.107c0.027,0.03,0.061,0.037,0.061,0.037s0.335-0.049,0.712-0.264
			c0.318-0.179,0.579-0.317,0.695-0.463c0.015-0.014,0.031-0.022,0.046-0.034c0.092-0.069,0.337-0.349,0.279-0.354
			C402.306,407.625,402.052,407.801,401.919,407.894 M409.782,383.052l-0.003-0.019c-0.051-0.189-0.165-0.317-0.306-0.498
			c-0.068-0.088-0.13-0.134-0.175-0.156c-0.017-0.122-0.092-0.292-0.127-0.354c-0.042-0.084-0.145-0.336-0.192-0.424
			c-0.009-0.011-0.021-0.021-0.028-0.036c-0.003-0.048-0.077-0.116-0.119-0.17c-0.042-0.063-0.204-0.134-0.199-0.056
			c0.004,0.066,0.148,0.297,0.194,0.365c0.018,0.134,0.073,0.305,0.156,0.443c0.083,0.135,0.175,0.294,0.224,0.371
			c0.002,0.016,0.002,0.029,0.005,0.048c0.021,0.17,0.178,0.215,0.231,0.263c0.058,0.055,0.192,0.234,0.254,0.275
			c0.009,0.006,0.019,0.014,0.019,0.014c0.067,0.121,0.188,0.351,0.205,0.348C409.939,383.465,409.829,383.152,409.782,383.052
			 M397.82,400.879c0.409,0.1,0.896,0.215,1.046,0.253c-0.021,0.21,0.083,0.267,0.083,0.267s0.434-0.016,0.951-0.305
			c0.354-0.204,0.662-0.369,0.854-0.55c0.07-0.051,0.145-0.107,0.202-0.143c0.153-0.1,0.579-0.558,0.49-0.589
			c-0.073-0.026-0.644,0.315-0.793,0.414c-0.009,0.003-0.016,0.011-0.02,0.017c-0.018,0.006-0.033,0.01-0.051,0.015
			c-0.219,0.07-0.703,0.351-0.898,0.429c-0.157,0.067-0.567,0.137-0.739,0.287c0.003-0.021,0.007-0.039,0.009-0.063
			c0.047-0.231-0.545-0.464-0.742-0.525c-0.195-0.063-0.715-0.296-0.94-0.344c-0.033-0.012-0.067-0.016-0.102-0.02
			c-0.055-0.068-0.317-0.054-0.484-0.079c-0.173-0.027-0.673,0.118-0.582,0.238c0.07,0.095,0.671,0.222,0.865,0.254
			C397.145,400.62,397.463,400.792,397.82,400.879 M397.91,402.759c0.417,0.048,0.916,0.105,1.045,0.119
			c0.016,0.115,0.08,0.144,0.08,0.144s0.408-0.012,0.9-0.289c0.338-0.191,0.627-0.347,0.811-0.519
			c0.067-0.048,0.137-0.102,0.193-0.14c0.144-0.095,0.548-0.53,0.465-0.559c-0.07-0.025-0.609,0.299-0.754,0.394l-0.021,0.017
			c-0.016,0.004-0.031,0.012-0.046,0.015c-0.206,0.066-0.666,0.333-0.851,0.407c-0.158,0.065-0.582,0.137-0.728,0.301
			c0-0.223-0.583-0.377-0.776-0.413c-0.193-0.034-0.716-0.199-0.938-0.222c-0.031-0.002-0.064-0.005-0.101-0.005
			c-0.062-0.063-0.311-0.018-0.473-0.025c-0.171-0.005-0.636,0.191-0.535,0.297c0.079,0.083,0.671,0.137,0.861,0.146
			C397.235,402.584,397.56,402.715,397.91,402.759 M398.532,405.681c0.334-0.002,0.724-0.004,0.859-0.006
			c0.018,0.133,0.088,0.158,0.088,0.158s0.364-0.041,0.779-0.327c0.29-0.197,0.538-0.356,0.689-0.525
			c0.052-0.05,0.109-0.101,0.157-0.14c0.122-0.095,0.449-0.511,0.373-0.531c-0.062-0.018-0.521,0.314-0.645,0.407
			c0,0.007-0.009,0.012-0.014,0.017c-0.013,0.006-0.023,0.011-0.038,0.019c-0.181,0.068-0.57,0.348-0.73,0.428
			c-0.134,0.07-0.502,0.165-0.621,0.318c-0.041-0.149-0.525-0.204-0.687-0.217c-0.166-0.007-0.619-0.078-0.804-0.074
			c-0.03,0-0.058,0.002-0.083,0.005c-0.058-0.038-0.263,0.016-0.398,0.028c-0.141,0.008-0.509,0.188-0.415,0.254
			c0.076,0.053,0.577,0.041,0.734,0.027C397.953,405.615,398.234,405.681,398.532,405.681 M398.909,406.841
			c0.272-0.015,0.586-0.036,0.728-0.047c0.018,0.104,0.084,0.127,0.084,0.127s0.351-0.037,0.749-0.287
			c0.281-0.172,0.518-0.311,0.662-0.458c0.053-0.044,0.11-0.089,0.156-0.118c0.12-0.087,0.432-0.453,0.359-0.469
			c-0.064-0.016-0.507,0.273-0.62,0.356c-0.009,0.005-0.009,0.012-0.016,0.013c-0.014,0.005-0.026,0.011-0.037,0.016
			c-0.176,0.063-0.553,0.304-0.707,0.376c-0.129,0.059-0.481,0.139-0.598,0.275c-0.104-0.083-0.46-0.098-0.585-0.098
			c-0.147,0.003-0.549-0.027-0.715-0.012c-0.021,0-0.049,0.002-0.073,0.005c-0.05-0.025-0.229,0.025-0.348,0.041
			c-0.125,0.013-0.438,0.171-0.351,0.215c0.066,0.035,0.505,0,0.646-0.019C398.4,406.822,398.652,406.856,398.909,406.841
			 M399.488,408.036c0.347-0.062,0.771-0.146,0.771-0.146l-0.004-0.008c0.119-0.013,0.391-0.062,0.689-0.211
			c0.283-0.145,0.527-0.26,0.679-0.385c0.052-0.037,0.109-0.075,0.158-0.101c0.117-0.07,0.444-0.388,0.372-0.408
			c-0.059-0.018-0.506,0.223-0.626,0.292c-0.006,0.002-0.01,0.008-0.015,0.012c-0.013,0.003-0.025,0.009-0.038,0.011
			c-0.171,0.049-0.555,0.246-0.711,0.303c-0.153,0.056-0.619,0.123-0.644,0.291c0,0.007,0,0.015,0,0.015
			c-0.147-0.021-0.399,0.002-0.505,0.019c-0.139,0.015-0.534,0.036-0.69,0.068c-0.024,0.005-0.046,0.009-0.07,0.016
			c-0.05-0.018-0.217,0.053-0.331,0.082c-0.117,0.027-0.402,0.217-0.315,0.25c0.07,0.025,0.49-0.063,0.622-0.096
			C398.988,408.085,399.238,408.086,399.488,408.036 M386.106,386.352c-0.083-0.162-0.253-0.344-0.442-0.559
			c-0.31-0.352-0.721-0.488-0.721-0.488h-0.009c0.003-0.013,0.009-0.03,0.018-0.051c0.055-0.157-0.452-0.205-0.622-0.209
			c-0.168-0.006-0.61-0.063-0.806-0.06c-0.025,0.003-0.059,0.003-0.086,0.008c-0.043-0.033-0.279,0.022-0.42,0.033
			c-0.156,0.017-0.61,0.2-0.54,0.263c0.058,0.055,0.579,0.026,0.751,0.011c0.139,0.091,0.407,0.146,0.714,0.141
			c0.276-0.011,0.587-0.015,0.778-0.021c-0.021,0.018-0.042,0.041-0.06,0.064c-0.129,0.178,0.386,0.411,0.521,0.523
			c0.141,0.112,0.426,0.447,0.593,0.557c0.025,0.022,0.059,0.041,0.087,0.056c0.005,0.017,0.009,0.034,0.018,0.048
			c0.083,0.111,0.412,0.514,0.5,0.518c0.107,0.006,0-0.433-0.083-0.549C386.236,386.555,386.166,386.412,386.106,386.352
			 M385.375,388.306c-0.088-0.196-0.261-0.414-0.454-0.672c-0.32-0.427-0.743-0.593-0.743-0.593h-0.007
			c0.005-0.016,0.013-0.036,0.019-0.063c0.059-0.191-0.461-0.247-0.632-0.255c-0.175-0.005-0.628-0.077-0.828-0.069
			c-0.03,0.003-0.058,0.008-0.088,0.014c-0.044-0.051-0.289,0.022-0.437,0.037c-0.155,0.019-0.621,0.24-0.551,0.314
			c0.061,0.064,0.598,0.033,0.772,0.016c0.142,0.11,0.416,0.176,0.732,0.166c0.279-0.006,0.601-0.016,0.795-0.022
			c-0.02,0.022-0.041,0.05-0.062,0.079c-0.129,0.215,0.397,0.498,0.537,0.634c0.141,0.133,0.435,0.542,0.605,0.675
			c0.03,0.023,0.059,0.047,0.092,0.069c0,0.018,0.009,0.036,0.018,0.055c0.084,0.137,0.421,0.624,0.511,0.628
			c0.109,0.002,0.002-0.527-0.083-0.665C385.508,388.551,385.434,388.377,385.375,388.306 M384.169,390.194
			c-0.087-0.197-0.261-0.419-0.454-0.677c-0.236-0.314-0.53-0.488-0.668-0.554c-0.016-0.192-0.484-0.303-0.645-0.328
			c-0.134-0.021-0.444-0.104-0.662-0.144c-0.004-0.013-0.004-0.023-0.009-0.033c-0.025-0.07-0.273-0.009-0.423-0.006
			c-0.148,0.004-0.579,0.208-0.504,0.304c0.044,0.05,0.294,0.077,0.5,0.086c0.146,0.151,0.436,0.271,0.763,0.296
			c0.203,0.014,0.427,0.028,0.607,0.043c-0.064,0.209,0.418,0.472,0.552,0.599c0.138,0.136,0.432,0.538,0.604,0.673
			c0.031,0.025,0.059,0.049,0.092,0.071c0,0.017,0.004,0.036,0.017,0.054c0.083,0.136,0.419,0.621,0.511,0.629
			c0.111,0.004,0.003-0.529-0.085-0.666C384.303,390.44,384.229,390.268,384.169,390.194 M383.281,392.151
			c-0.009-0.004-0.018-0.004-0.026-0.009c-0.025-0.051-0.057-0.103-0.087-0.148c-0.123-0.204-0.475-0.547-0.592-0.714
			c-0.101-0.135-0.301-0.586-0.459-0.648c0.012-0.166-0.396-0.264-0.533-0.284c-0.139-0.019-0.515-0.127-0.675-0.137
			c-0.03,0-0.061,0-0.087,0.003c-0.039-0.003-0.075-0.007-0.108-0.014c-0.12-0.021-0.506,0.067-0.457,0.157
			c0.026,0.054,0.245,0.124,0.416,0.168c0.126,0.127,0.364,0.222,0.632,0.24c0.219,0.016,0.464,0.032,0.622,0.045
			c-0.053,0.118-0.049,0.212-0.049,0.212s0.172,0.517,0.536,0.884c0.246,0.246,0.453,0.469,0.631,0.548
			c0.065,0.058,0.176,0.119,0.246,0.177c0.106,0.092,0.503,0.184,0.49,0.059C383.769,392.589,383.387,392.243,383.281,392.151
			 M382.423,393.99c-0.036-0.093-0.098-0.194-0.162-0.296c-0.141-0.236-0.545-0.63-0.686-0.826c-0.092-0.13-0.271-0.514-0.431-0.68
			c0.013-0.025,0.025-0.06,0.046-0.103c0.093-0.198-0.333-0.468-0.48-0.543c-0.142-0.076-0.511-0.34-0.68-0.406
			c-0.092-0.037-0.194-0.057-0.276-0.042c-0.142-0.011-0.282,0.008-0.271,0.08c0.006,0.038,0.074,0.104,0.159,0.175
			c0.065,0.209,0.311,0.445,0.627,0.579c0.215,0.093,0.46,0.197,0.627,0.268c-0.135,0.187-0.125,0.376-0.125,0.376
			s0.197,0.596,0.62,1.02c0.312,0.314,0.566,0.591,0.783,0.659l0.01,0.008c0.11,0.09,0.515,0.187,0.505,0.059
			C382.681,394.259,382.553,394.117,382.423,393.99 M377.736,398.925c-0.088-0.159-0.26-0.392-0.327-0.51
			c-0.059-0.106-0.203-0.451-0.273-0.502c0.064-0.009,0.002-0.211-0.027-0.28c-0.025-0.075-0.083-0.269-0.122-0.352
			c-0.013-0.033-0.033-0.068-0.057-0.096c-0.005-0.014-0.014-0.025-0.014-0.025c-0.022-0.065-0.163-0.194-0.188-0.149
			c-0.013,0.024,0.024,0.146,0.053,0.231c0.003,0.066,0.026,0.155,0.073,0.258c0.084,0.182,0.188,0.404,0.188,0.404l0.063,0.009
			c-0.005,0.004-0.005,0.009-0.009,0.019c-0.042,0.146-0.009,0.302-0.009,0.302s0.144,0.406,0.344,0.684
			c0.091,0.124,0.169,0.237,0.235,0.317l0.009,0.02c0.037,0.081,0.225,0.234,0.249,0.153c0.015-0.064-0.107-0.372-0.142-0.453
			C377.771,398.934,377.753,398.928,377.736,398.925 M381.326,395.21c-0.123-0.207-0.487-0.565-0.609-0.736
			c-0.083-0.116-0.246-0.46-0.388-0.608c0.008-0.016,0.028-0.051,0.071-0.146c0.08-0.152-0.275-0.36-0.398-0.419
			c-0.119-0.06-0.427-0.261-0.57-0.314c-0.092-0.031-0.205-0.05-0.275-0.016c-0.11-0.008-0.202,0.01-0.197,0.065
			c0.004,0.05,0.102,0.151,0.215,0.253c0.092,0.124,0.255,0.241,0.456,0.318c0.185,0.071,0.399,0.153,0.538,0.209
			c-0.004,0.004-0.013,0.006-0.019,0.013c-0.16,0.18-0.151,0.379-0.151,0.379s0.179,0.531,0.553,0.91
			c0.205,0.207,0.381,0.391,0.534,0.501c0.018,0.015,0.035,0.027,0.048,0.043c0.107,0.103,0.544,0.251,0.553,0.123
			c0.005-0.059-0.114-0.214-0.234-0.356C381.418,395.358,381.372,395.284,381.326,395.21 M380.416,396.769
			c-0.096-0.218-0.396-0.608-0.493-0.788c-0.087-0.162-0.249-0.712-0.402-0.725c0.017-0.018,0.037-0.046,0.063-0.077
			c0.124-0.144-0.178-0.468-0.283-0.568c-0.057-0.051-0.157-0.161-0.255-0.272c-0.019-0.027-0.056-0.066-0.104-0.104
			c-0.049-0.051-0.095-0.095-0.132-0.12c-0.034-0.025-0.076-0.05-0.119-0.069c-0.154-0.078-0.421-0.138-0.429-0.039
			c-0.004,0.051,0.084,0.17,0.183,0.29c0.041,0.174,0.186,0.381,0.387,0.54c0.238,0.186,0.521,0.403,0.606,0.467
			c-0.147,0.158-0.159,0.338-0.159,0.338s0.11,0.547,0.421,0.965c0.22,0.29,0.4,0.545,0.566,0.638
			c0.138,0.098,0.311,0.176,0.337,0.097c0.012-0.041-0.021-0.141-0.074-0.256C380.514,396.991,380.462,396.883,380.416,396.769
			 M379.445,397.69c-0.097-0.225-0.395-0.62-0.495-0.804c-0.088-0.169-0.26-0.757-0.414-0.736c0.094-0.097-0.129-0.389-0.217-0.483
			c-0.093-0.1-0.294-0.392-0.408-0.495c-0.112-0.107-0.289-0.205-0.359-0.098c-0.083,0.132,0.035,0.408,0.28,0.643
			c0.244,0.236,0.542,0.528,0.542,0.528s0-0.003,0.103-0.059c-0.157,0.166-0.167,0.354-0.167,0.354s0.105,0.558,0.421,0.982
			c0.264,0.352,0.468,0.656,0.661,0.682c0.124,0.077,0.255,0.126,0.275,0.054c0.022-0.063-0.085-0.291-0.184-0.477
			C379.472,397.751,379.459,397.723,379.445,397.69 M378.436,398.341c-0.082-0.217-0.306-0.58-0.384-0.759
			c-0.073-0.161-0.229-0.727-0.33-0.695c-0.043-0.099-0.129-0.215-0.17-0.268c-0.079-0.098-0.259-0.374-0.36-0.484
			c-0.052-0.054-0.113-0.109-0.179-0.147c-0.113-0.077-0.267-0.144-0.285-0.084c-0.013,0.041,0.064,0.184,0.139,0.306
			c0.04,0.1,0.12,0.213,0.221,0.327c0.22,0.246,0.487,0.54,0.487,0.54l0.064-0.012c-0.031,0.125-0.027,0.231-0.027,0.231
			s0.12,0.544,0.354,0.938c0.046,0.082,0.095,0.155,0.139,0.228c0.013,0.031,0.034,0.064,0.059,0.099
			c0.026,0.045,0.051,0.082,0.076,0.12c0,0,0.016,0.02,0.021,0.025c0.063,0.116,0.363,0.321,0.381,0.195
			c0.01-0.063-0.076-0.266-0.159-0.436C378.466,398.423,378.45,398.382,378.436,398.341 M386.85,384.376
			c-0.104-0.155-0.29-0.313-0.499-0.505c-0.352-0.316-0.778-0.401-0.778-0.401h-0.007c0.004-0.016,0.007-0.034,0.011-0.054
			c0.038-0.164-0.47-0.153-0.639-0.141c-0.166,0.013-0.61,0.005-0.806,0.037c-0.026,0.002-0.057,0.009-0.086,0.014
			c-0.046-0.033-0.273,0.051-0.414,0.081c-0.153,0.03-0.583,0.266-0.504,0.323c0.062,0.041,0.577-0.041,0.743-0.074
			c0.15,0.074,0.423,0.098,0.729,0.055c0.267-0.035,0.581-0.08,0.767-0.107c-0.017,0.021-0.034,0.045-0.052,0.073
			c-0.107,0.192,0.429,0.364,0.578,0.46c0.149,0.098,0.475,0.396,0.649,0.488c0.032,0.018,0.064,0.033,0.096,0.05
			c0,0.013,0.01,0.026,0.019,0.04c0.101,0.105,0.469,0.467,0.557,0.46c0.108-0.009-0.048-0.434-0.143-0.534
			C386.998,384.561,386.915,384.431,386.85,384.376 M387.831,382.668c-0.079-0.07-0.184-0.189-0.254-0.233
			c-0.123-0.14-0.326-0.273-0.562-0.437c-0.386-0.268-0.818-0.303-0.818-0.303s0,0.003-0.01,0.003c0-0.015,0.004-0.033,0.01-0.054
			c0.015-0.166-0.491-0.095-0.652-0.057c-0.169,0.031-0.61,0.085-0.8,0.136c-0.023,0.007-0.053,0.019-0.078,0.028
			c-0.051-0.025-0.269,0.086-0.406,0.133c-0.142,0.051-0.541,0.336-0.458,0.381c0.065,0.036,0.57-0.112,0.73-0.166
			c0.159,0.053,0.432,0.046,0.731-0.035c0.261-0.074,0.562-0.156,0.745-0.207c-0.015,0.022-0.027,0.051-0.042,0.081
			c-0.083,0.2,0.475,0.307,0.632,0.381c0.162,0.077,0.522,0.333,0.71,0.403c0.031,0.011,0.065,0.021,0.097,0.033
			c0.007,0.016,0.015,0.029,0.029,0.039c0.107,0.09,0.519,0.402,0.606,0.385C388.152,383.159,387.941,382.758,387.831,382.668
			 M388.476,381.041c-0.083-0.068-0.186-0.191-0.254-0.234c-0.123-0.139-0.329-0.273-0.562-0.438
			c-0.385-0.266-0.823-0.303-0.823-0.303l-0.005,0.002c0-0.014,0.005-0.031,0.005-0.055c0.017-0.164-0.486-0.09-0.654-0.055
			c-0.161,0.034-0.606,0.083-0.792,0.137c-0.027,0.009-0.058,0.018-0.085,0.027c-0.047-0.022-0.262,0.088-0.399,0.134
			c-0.144,0.05-0.542,0.337-0.462,0.384c0.069,0.034,0.57-0.114,0.732-0.17c0.16,0.055,0.433,0.047,0.729-0.037
			c0.264-0.069,0.562-0.154,0.747-0.203c-0.015,0.022-0.027,0.049-0.04,0.077c-0.084,0.204,0.469,0.308,0.632,0.388
			c0.157,0.071,0.516,0.33,0.705,0.4c0.034,0.011,0.07,0.022,0.096,0.033c0.009,0.012,0.021,0.029,0.031,0.04
			c0.107,0.09,0.521,0.401,0.609,0.384C388.791,381.529,388.586,381.131,388.476,381.041 M388.806,379.186
			c-0.073-0.046-0.174-0.135-0.238-0.164c-0.115-0.1-0.302-0.191-0.513-0.303c-0.353-0.178-0.727-0.176-0.727-0.176h-0.007
			c0-0.012,0-0.027,0-0.039c0.001-0.134-0.423-0.041-0.563-0.006c-0.141,0.037-0.518,0.107-0.675,0.161
			c-0.026,0.007-0.049,0.019-0.07,0.028c-0.045-0.02-0.224,0.079-0.337,0.127c-0.122,0.049-0.444,0.297-0.37,0.325
			c0.062,0.025,0.483-0.125,0.619-0.177c0.141,0.031,0.374,0.006,0.627-0.075c0.222-0.077,0.474-0.158,0.627-0.21
			c-0.011,0.02-0.022,0.04-0.031,0.064c-0.058,0.161,0.43,0.205,0.573,0.256c0.142,0.047,0.47,0.223,0.64,0.264
			c0.025,0.008,0.054,0.012,0.085,0.019c0.007,0.015,0.015,0.021,0.023,0.03c0.104,0.062,0.48,0.276,0.555,0.259
			C389.114,379.546,388.906,379.25,388.806,379.186 M389.015,377.68c-0.08-0.027-0.19-0.094-0.261-0.109
			c-0.126-0.072-0.325-0.123-0.556-0.19c-0.376-0.107-0.745-0.054-0.745-0.054s-0.005,0.002-0.008,0.004
			c-0.001-0.012-0.001-0.024-0.004-0.039c-0.021-0.11-0.43,0.027-0.561,0.08c-0.132,0.051-0.491,0.16-0.641,0.232
			c-0.021,0.01-0.042,0.021-0.062,0.031c-0.05-0.008-0.206,0.107-0.311,0.16c-0.112,0.059-0.391,0.32-0.314,0.332
			c0.064,0.016,0.459-0.174,0.582-0.24c0.145,0.01,0.372-0.045,0.604-0.152c0.205-0.093,0.443-0.205,0.588-0.267
			c-0.007,0.019-0.015,0.036-0.019,0.06c-0.03,0.146,0.457,0.119,0.604,0.141c0.15,0.021,0.5,0.13,0.672,0.139
			c0.03,0.006,0.059,0.006,0.088,0.006c0.009,0.01,0.021,0.016,0.03,0.021c0.11,0.041,0.52,0.174,0.587,0.148
			C389.377,377.949,389.122,377.721,389.015,377.68 M386.86,375.898c0.107-0.002,0.257-0.033,0.41-0.094
			c0.248-0.098,0.551-0.213,0.551-0.213l-0.005-0.038c0.12-0.034,0.267-0.089,0.331-0.107c0.128-0.034,0.416-0.089,0.565-0.134
			c0.083-0.027,0.17-0.056,0.23-0.085c0.103-0.017,0.243-0.048,0.261-0.067c0.025-0.028-0.189-0.063-0.257-0.057
			c-0.071,0.012-0.19,0.009-0.197,0.032v0.018c-0.085,0.016-0.184,0.036-0.29,0.056c-0.308,0.06-0.646,0.203-0.646,0.203
			s-0.043,0.021-0.09,0.06c-0.101,0-0.261,0.05-0.331,0.073c-0.101,0.03-0.377,0.104-0.49,0.146
			c-0.065,0.026-0.136,0.065-0.171,0.104c-0.013,0.007-0.031,0.015-0.041,0.021c-0.089,0.051-0.307,0.253-0.248,0.264
			C386.488,376.085,386.74,375.961,386.86,375.898 M389.353,376.338c-0.083-0.023-0.197-0.078-0.271-0.09
			c-0.132-0.061-0.333-0.096-0.569-0.147c-0.383-0.081-0.751-0.005-0.751-0.005l-0.009,0.005c0-0.009-0.004-0.022-0.004-0.033
			c-0.027-0.11-0.427,0.051-0.557,0.11c-0.129,0.06-0.482,0.191-0.627,0.268c-0.021,0.012-0.039,0.025-0.063,0.039
			c-0.046-0.004-0.197,0.115-0.303,0.175c-0.107,0.065-0.368,0.34-0.292,0.351c0.066,0.004,0.447-0.203,0.57-0.273
			c0.146-0.004,0.368-0.076,0.597-0.193c0.202-0.103,0.433-0.228,0.57-0.298c-0.005,0.017-0.009,0.034-0.016,0.058
			c-0.021,0.146,0.47,0.086,0.616,0.097c0.153,0.011,0.51,0.093,0.684,0.095c0.031,0,0.062,0,0.09-0.002
			c0.009,0.007,0.018,0.012,0.033,0.018c0.109,0.03,0.527,0.135,0.596,0.104C389.729,376.576,389.462,376.369,389.353,376.338"/>
		<path fill="#C90000" d="M233.844,330.406h12.594c6.245,0,10.352,0.568,12.318,1.692c1.971,1.128,2.954,3.489,2.954,7.106
			c0,2.654-0.531,4.457-1.587,5.396c-1.055,0.944-3.259,1.573-6.612,1.899c3.841,0.541,6.264,1.259,7.272,2.148
			c1.012,0.888,1.512,2.778,1.512,5.695c0,3.82-0.983,6.349-2.951,7.617c-1.971,1.249-5.943,1.886-11.932,1.886h-13.568v-8.938
			h3.272v-15.953h-3.272V330.406z M246.438,338.955v5.807h1.753c2.572,0,3.855-0.98,3.855-2.939c0-1.91-1.362-2.867-4.099-2.867
			H246.438z M246.438,348.436v6.473h1.51c3.124,0,4.687-1.184,4.687-3.534c0-1.956-1.578-2.938-4.731-2.938H246.438z"/>
		<path fill="none" stroke="#FFFFFF" stroke-width="2.294" d="M233.844,330.406h12.594c6.245,0,10.352,0.568,12.318,1.692
			c1.971,1.128,2.954,3.489,2.954,7.106c0,2.654-0.531,4.457-1.587,5.396c-1.055,0.944-3.259,1.573-6.612,1.899
			c3.841,0.541,6.264,1.259,7.272,2.148c1.012,0.888,1.512,2.778,1.512,5.695c0,3.82-0.983,6.349-2.951,7.617
			c-1.971,1.249-5.943,1.886-11.932,1.886h-13.568v-8.938h3.272v-15.953h-3.272V330.406z M246.438,338.955v5.807h1.753
			c2.572,0,3.855-0.98,3.855-2.939c0-1.91-1.362-2.867-4.099-2.867H246.438z M246.438,348.436v6.473h1.51
			c3.124,0,4.687-1.184,4.687-3.534c0-1.956-1.578-2.938-4.731-2.938H246.438z"/>
		<path fill="#C90000" d="M288.796,356.644v6.907c-1.367,0.41-2.718,0.617-4.051,0.617c-2.866,0-4.914-0.787-6.15-2.358
			c-1.106,1.571-2.945,2.358-5.515,2.358c-4.616,0-6.926-2.766-6.926-8.309c0-2.909,2.667-5.105,8-6.593
			c2.7-0.731,4.052-1.523,4.052-2.377c0-1.056-0.81-1.59-2.438-1.59c-1.73,0-2.592,0.64-2.592,1.915c0,0.256,0.083,0.65,0.252,1.172
			h-6.686c-0.493-1.08-0.737-2.33-0.737-3.765c0-4.009,3.387-6.011,10.152-6.011c6.282,0,9.421,2.065,9.421,6.203v1.979v7.105
			c0,1.994,0.682,2.994,2.046,2.994C287.881,356.893,288.273,356.81,288.796,356.644 M278.595,351.718
			c-3.971,0.976-5.952,2.13-5.952,3.456c0,1.145,0.958,1.719,2.877,1.719c2.051,0,3.075-1.007,3.075-3.012V351.718z"/>
		<path fill="none" stroke="#FFFFFF" stroke-width="2.294" d="M288.796,356.644v6.907c-1.367,0.41-2.718,0.617-4.051,0.617
			c-2.866,0-4.914-0.787-6.15-2.358c-1.106,1.571-2.945,2.358-5.515,2.358c-4.616,0-6.926-2.766-6.926-8.309
			c0-2.909,2.667-5.105,8-6.593c2.7-0.731,4.052-1.523,4.052-2.377c0-1.056-0.81-1.59-2.438-1.59c-1.73,0-2.592,0.64-2.592,1.915
			c0,0.256,0.083,0.65,0.252,1.172h-6.686c-0.493-1.08-0.737-2.33-0.737-3.765c0-4.009,3.387-6.011,10.152-6.011
			c6.282,0,9.421,2.065,9.421,6.203v1.979v7.105c0,1.994,0.682,2.994,2.046,2.994C287.881,356.893,288.273,356.81,288.796,356.644z
			 M278.595,351.718c-3.971,0.976-5.952,2.13-5.952,3.456c0,1.145,0.958,1.719,2.877,1.719c2.051,0,3.075-1.007,3.075-3.012V351.718
			z"/>
		<path fill="#C90000" d="M309.438,338.955v9.632h-5.656v-0.665c0-1.732-1.223-2.594-3.664-2.594c-1.922,0-2.881,0.485-2.881,1.449
			c0,0.797,0.851,1.436,2.54,1.927l3.656,1.056c4.786,1.407,7.176,3.607,7.176,6.595c0,5.204-2.326,7.813-6.979,7.813
			c-3.095,0-5.258-0.876-6.49-2.619v2.298h-5.661v-10.188h5.661v0.488c0,2.216,1.104,3.328,3.32,3.328
			c1.981,0,2.973-0.568,2.973-1.718c0-1.253-1.138-2.226-3.412-2.91l-2.395-0.737c-4.585-1.389-6.876-3.622-6.876-6.713
			c0-4.507,2.226-6.756,6.684-6.756c2.825,0,4.947,0.903,6.348,2.719v-2.404H309.438z"/>
		<path fill="none" stroke="#FFFFFF" stroke-width="2.294" d="M309.438,338.955v9.632h-5.656v-0.665
			c0-1.732-1.223-2.594-3.664-2.594c-1.922,0-2.881,0.485-2.881,1.449c0,0.797,0.851,1.436,2.54,1.927l3.656,1.056
			c4.786,1.407,7.176,3.607,7.176,6.595c0,5.204-2.326,7.813-6.979,7.813c-3.095,0-5.258-0.876-6.49-2.619v2.298h-5.661v-10.188
			h5.661v0.488c0,2.216,1.104,3.328,3.32,3.328c1.981,0,2.973-0.568,2.973-1.718c0-1.253-1.138-2.226-3.412-2.91l-2.395-0.737
			c-4.585-1.389-6.876-3.622-6.876-6.713c0-4.507,2.226-6.756,6.684-6.756c2.825,0,4.947,0.903,6.348,2.719v-2.404H309.438z"/>
		<path fill="#C90000" d="M333.109,353.17c0.224,0.94,0.342,2.072,0.342,3.399c0,5.051-3.095,7.571-9.276,7.571
			c-4.327,0-7.115-0.849-8.373-2.543c-1.252-1.703-1.879-5.504-1.879-11.391c0-4.501,0.695-7.549,2.076-9.174
			c1.383-1.615,3.999-2.421,7.836-2.421c3.805,0,6.407,0.834,7.805,2.497c1.399,1.674,2.098,4.742,2.098,9.241l-0.046,1.661h-12.349
			v2.475l0.146,1.199c0.231,0.82,1.039,1.213,2.438,1.184c1.628-0.039,2.444-0.821,2.444-2.352v-0.816l0.048-0.531H333.109z
			 M321.198,349.246h5.221v-1.791c0-1.43-0.864-2.154-2.584-2.154c-1.827,0-2.734,0.861-2.734,2.592
			C321.102,348.26,321.137,348.701,321.198,349.246"/>
		<path fill="none" stroke="#FFFFFF" stroke-width="2.294" d="M333.109,353.17c0.224,0.94,0.342,2.072,0.342,3.399
			c0,5.051-3.095,7.571-9.276,7.571c-4.327,0-7.115-0.849-8.373-2.543c-1.252-1.703-1.879-5.504-1.879-11.391
			c0-4.501,0.695-7.549,2.076-9.174c1.383-1.615,3.999-2.421,7.836-2.421c3.805,0,6.407,0.834,7.805,2.497
			c1.399,1.674,2.098,4.742,2.098,9.241l-0.046,1.661h-12.349v2.475l0.146,1.199c0.231,0.82,1.039,1.213,2.438,1.184
			c1.628-0.039,2.444-0.821,2.444-2.352v-0.816l0.048-0.531H333.109z M321.198,349.246h5.221v-1.791c0-1.43-0.864-2.154-2.584-2.154
			c-1.827,0-2.734,0.861-2.734,2.592C321.102,348.26,321.137,348.701,321.198,349.246z"/>
		<path fill="#C90000" d="M345.988,330.404v10.565c1.398-1.568,3.451-2.358,6.148-2.358c2.931,0,4.855,0.689,5.782,2.052
			c0.929,1.366,1.395,4.156,1.395,8.392v4.826c0,6.855-2.738,10.285-8.2,10.285c-3.222,0-5.401-0.967-6.541-2.896l-1.609,2.58
			h-3.953v-27.834h-2.492v-5.611H345.988z M349.504,345.3c-2.118,0-3.176,2.125-3.176,6.367c0,3.872,1.028,5.809,3.078,5.809
			c1.659,0,2.487-0.939,2.487-2.813l0.051-2.08l0.046-1.899l-0.046-1.852l-0.051-1.638C351.893,345.93,351.098,345.3,349.504,345.3"
			/>
		<path fill="none" stroke="#FFFFFF" stroke-width="2.294" d="M345.988,330.404v10.565c1.398-1.568,3.451-2.358,6.148-2.358
			c2.931,0,4.855,0.689,5.782,2.052c0.929,1.366,1.395,4.156,1.395,8.392v4.826c0,6.855-2.738,10.285-8.2,10.285
			c-3.222,0-5.401-0.967-6.541-2.896l-1.609,2.58h-3.953v-27.834h-2.492v-5.611H345.988z M349.504,345.3
			c-2.118,0-3.176,2.125-3.176,6.367c0,3.872,1.028,5.809,3.078,5.809c1.659,0,2.487-0.939,2.487-2.813l0.051-2.08l0.046-1.899
			l-0.046-1.852l-0.051-1.638C351.893,345.93,351.098,345.3,349.504,345.3z"/>
		<path fill="#C90000" d="M386.008,356.644v6.907c-1.37,0.41-2.714,0.617-4.056,0.617c-2.861,0-4.911-0.787-6.149-2.358
			c-1.101,1.571-2.939,2.358-5.511,2.358c-4.62,0-6.936-2.766-6.936-8.309c0-2.909,2.674-5.105,8.01-6.593
			c2.7-0.731,4.05-1.523,4.05-2.377c0-1.056-0.814-1.59-2.44-1.59c-1.723,0-2.587,0.64-2.587,1.915c0,0.256,0.079,0.65,0.245,1.172
			h-6.688c-0.488-1.08-0.733-2.33-0.733-3.765c0-4.009,3.381-6.011,10.152-6.011c6.277,0,9.417,2.065,9.417,6.203v1.979v7.105
			c0,1.994,0.688,2.994,2.051,2.994C385.097,356.893,385.483,356.81,386.008,356.644 M375.803,351.718
			c-3.965,0.976-5.947,2.13-5.947,3.456c0,1.145,0.956,1.719,2.879,1.719c2.047,0,3.068-1.007,3.068-3.012V351.718z"/>
		<path fill="none" stroke="#FFFFFF" stroke-width="2.294" d="M386.008,356.644v6.907c-1.37,0.41-2.714,0.617-4.056,0.617
			c-2.861,0-4.911-0.787-6.149-2.358c-1.101,1.571-2.939,2.358-5.511,2.358c-4.62,0-6.936-2.766-6.936-8.309
			c0-2.909,2.674-5.105,8.01-6.593c2.7-0.731,4.05-1.523,4.05-2.377c0-1.056-0.814-1.59-2.44-1.59c-1.723,0-2.587,0.64-2.587,1.915
			c0,0.256,0.079,0.65,0.245,1.172h-6.688c-0.488-1.08-0.733-2.33-0.733-3.765c0-4.009,3.381-6.011,10.152-6.011
			c6.277,0,9.417,2.065,9.417,6.203v1.979v7.105c0,1.994,0.688,2.994,2.051,2.994C385.097,356.893,385.483,356.81,386.008,356.644z
			 M375.803,351.718c-3.965,0.976-5.947,2.13-5.947,3.456c0,1.145,0.956,1.719,2.879,1.719c2.047,0,3.068-1.007,3.068-3.012V351.718
			z"/>
		<polygon fill="#C90000" points="398.063,356.816 400.893,356.816 400.893,363.847 388.396,363.847 388.396,356.816 
			391.083,356.816 391.083,337.099 388.396,337.099 388.396,330.406 398.063,330.406 		"/>
		<polygon fill="none" stroke="#FFFFFF" stroke-width="2.294" points="398.063,356.816 400.893,356.816 400.893,363.847 
			388.396,363.847 388.396,356.816 391.083,356.816 391.083,337.099 388.396,337.099 388.396,330.406 398.063,330.406 		"/>
		<polygon fill="#C90000" points="412.942,356.816 415.773,356.816 415.773,363.847 403.281,363.847 403.281,356.816 
			405.963,356.816 405.963,337.099 403.281,337.099 403.281,330.406 412.942,330.406 		"/>
		<polygon fill="none" stroke="#FFFFFF" stroke-width="2.294" points="412.942,356.816 415.773,356.816 415.773,363.847 
			403.281,363.847 403.281,356.816 405.963,356.816 405.963,337.099 403.281,337.099 403.281,330.406 412.942,330.406 		"/>
		<path fill="#C90000" d="M460.136,330.406v13.375h-8.788l0.146-2.77c0-1.305-0.969-1.951-2.924-1.951
			c-2.6,0-3.911,2.876-3.911,8.639c0,4.655,1.241,6.988,3.722,6.988c1.978,0,2.968-1.109,2.968-3.334v-1.106h-3.072v-4.851h15.479
			v4.851h-3.619v13.6h-4.489l-1.853-2.799c-0.131,0.163-0.231,0.29-0.289,0.374c-1.635,1.979-4.331,2.964-8.11,2.964
			c-4.194,0-6.975-0.788-8.338-2.355c-1.371-1.56-2.055-4.743-2.055-9.524v-2.259v-7.196c0-5.13,0.698-8.609,2.104-10.439
			c1.394-1.824,4.046-2.744,7.948-2.744c3.516,0,5.76,0.752,6.744,2.256v-1.717H460.136z"/>
		<path fill="none" stroke="#FFFFFF" stroke-width="2.294" d="M460.136,330.406v13.375h-8.788l0.146-2.77
			c0-1.305-0.969-1.951-2.924-1.951c-2.6,0-3.911,2.876-3.911,8.639c0,4.655,1.241,6.988,3.722,6.988
			c1.978,0,2.968-1.109,2.968-3.334v-1.106h-3.072v-4.851h15.479v4.851h-3.619v13.6h-4.489l-1.853-2.799
			c-0.131,0.163-0.231,0.29-0.289,0.374c-1.635,1.979-4.331,2.964-8.11,2.964c-4.194,0-6.975-0.788-8.338-2.355
			c-1.371-1.56-2.055-4.743-2.055-9.524v-2.259v-7.196c0-5.13,0.698-8.609,2.104-10.439c1.394-1.824,4.046-2.744,7.948-2.744
			c3.516,0,5.76,0.752,6.744,2.256v-1.717H460.136z"/>
		<path fill="#C90000" d="M488.877,356.644v6.907c-1.369,0.41-2.716,0.617-4.05,0.617c-2.862,0-4.91-0.787-6.149-2.358
			c-1.105,1.571-2.942,2.358-5.517,2.358c-4.611,0-6.926-2.766-6.926-8.309c0-2.909,2.664-5.105,8.005-6.593
			c2.7-0.731,4.046-1.523,4.046-2.377c0-1.056-0.813-1.59-2.438-1.59c-1.725,0-2.588,0.64-2.588,1.915
			c0,0.256,0.081,0.65,0.247,1.172h-6.689c-0.484-1.08-0.729-2.33-0.729-3.765c0-4.009,3.382-6.011,10.15-6.011
			c6.282,0,9.421,2.065,9.421,6.203v1.979v7.105c0,1.994,0.686,2.994,2.043,2.994C487.969,356.893,488.361,356.81,488.877,356.644
			 M478.678,351.718c-3.964,0.976-5.952,2.13-5.952,3.456c0,1.145,0.962,1.719,2.885,1.719c2.047,0,3.067-1.007,3.067-3.012V351.718
			z"/>
		<path fill="none" stroke="#FFFFFF" stroke-width="2.294" d="M488.877,356.644v6.907c-1.369,0.41-2.716,0.617-4.05,0.617
			c-2.862,0-4.91-0.787-6.149-2.358c-1.105,1.571-2.942,2.358-5.517,2.358c-4.611,0-6.926-2.766-6.926-8.309
			c0-2.909,2.664-5.105,8.005-6.593c2.7-0.731,4.046-1.523,4.046-2.377c0-1.056-0.813-1.59-2.438-1.59
			c-1.725,0-2.588,0.64-2.588,1.915c0,0.256,0.081,0.65,0.247,1.172h-6.689c-0.484-1.08-0.729-2.33-0.729-3.765
			c0-4.009,3.382-6.011,10.15-6.011c6.282,0,9.421,2.065,9.421,6.203v1.979v7.105c0,1.994,0.686,2.994,2.043,2.994
			C487.969,356.893,488.361,356.81,488.877,356.644z M478.678,351.718c-3.964,0.976-5.952,2.13-5.952,3.456
			c0,1.145,0.962,1.719,2.885,1.719c2.047,0,3.067-1.007,3.067-3.012V351.718z"/>
		<path fill="#C90000" d="M528.7,356.816v7.03H516.89v-7.03h2.191v-6.664v-1.321l-0.043-1.202c0-1.55-0.849-2.329-2.536-2.329
			c-1.988,0-2.974,1.671-2.974,5.024v6.492h1.751v7.03H504.3v-7.03h2.249v-6.714v-2.252c0-1.696-0.854-2.551-2.543-2.551
			c-2.277,0-3.416,1.49-3.416,4.46v7.057h2.495v7.03h-11.817v-7.03h2.542v-11.174h-2.542v-6.688h9.322v2.081
			c1.632-1.616,3.691-2.424,6.199-2.424c3.096,0,5.128,0.808,6.099,2.424l0.587-0.506c1.369-1.275,3.253-1.918,5.655-1.918
			c4.625,0,6.937,2.158,6.937,6.471v11.734H528.7z"/>
		<path fill="none" stroke="#FFFFFF" stroke-width="2.294" d="M528.7,356.816v7.03H516.89v-7.03h2.191v-6.664v-1.321l-0.043-1.202
			c0-1.55-0.849-2.329-2.536-2.329c-1.988,0-2.974,1.671-2.974,5.024v6.492h1.751v7.03H504.3v-7.03h2.249v-6.714v-2.252
			c0-1.696-0.854-2.551-2.543-2.551c-2.277,0-3.416,1.49-3.416,4.46v7.057h2.495v7.03h-11.817v-7.03h2.542v-11.174h-2.542v-6.688
			h9.322v2.081c1.632-1.616,3.691-2.424,6.199-2.424c3.096,0,5.128,0.808,6.099,2.424l0.587-0.506
			c1.369-1.275,3.253-1.918,5.655-1.918c4.625,0,6.937,2.158,6.937,6.471v11.734H528.7z"/>
		<path fill="#C90000" d="M550.766,353.17c0.221,0.94,0.336,2.072,0.336,3.399c0,5.051-3.087,7.571-9.269,7.571
			c-4.326,0-7.128-0.849-8.381-2.543c-1.245-1.703-1.87-5.504-1.87-11.391c0-4.501,0.691-7.549,2.074-9.174
			c1.383-1.615,3.995-2.421,7.836-2.421c3.801,0,6.404,0.834,7.808,2.497c1.397,1.674,2.091,4.742,2.091,9.241l-0.049,1.661h-12.34
			v2.475l0.143,1.199c0.229,0.82,1.039,1.213,2.442,1.184c1.619-0.039,2.437-0.821,2.437-2.352v-0.816l0.05-0.531H550.766z
			 M538.849,349.246h5.225v-1.791c0-1.43-0.867-2.154-2.581-2.154c-1.828,0-2.74,0.861-2.74,2.592
			C538.752,348.26,538.787,348.701,538.849,349.246"/>
		<path fill="none" stroke="#FFFFFF" stroke-width="2.294" d="M550.766,353.17c0.221,0.94,0.336,2.072,0.336,3.399
			c0,5.051-3.087,7.571-9.269,7.571c-4.326,0-7.128-0.849-8.381-2.543c-1.245-1.703-1.87-5.504-1.87-11.391
			c0-4.501,0.691-7.549,2.074-9.174c1.383-1.615,3.995-2.421,7.836-2.421c3.801,0,6.404,0.834,7.808,2.497
			c1.397,1.674,2.091,4.742,2.091,9.241l-0.049,1.661h-12.34v2.475l0.143,1.199c0.229,0.82,1.039,1.213,2.442,1.184
			c1.619-0.039,2.437-0.821,2.437-2.352v-0.816l0.05-0.531H550.766z M538.849,349.246h5.225v-1.791c0-1.43-0.867-2.154-2.581-2.154
			c-1.828,0-2.74,0.861-2.74,2.592C538.752,348.26,538.787,348.701,538.849,349.246z"/>
		<path fill="#C90000" d="M233.844,330.502h12.594c6.245,0,10.352,0.568,12.318,1.692c1.971,1.13,2.954,3.491,2.954,7.106
			c0,2.654-0.531,4.458-1.587,5.396c-1.055,0.946-3.259,1.572-6.612,1.899c3.841,0.541,6.264,1.259,7.272,2.146
			c1.012,0.891,1.512,2.78,1.512,5.695c0,3.822-0.983,6.352-2.951,7.619c-1.971,1.25-5.943,1.887-11.932,1.887h-13.568v-8.938h3.272
			v-15.953h-3.272V330.502z M246.438,339.052v5.806h1.753c2.572,0,3.855-0.98,3.855-2.939c0-1.91-1.362-2.866-4.099-2.866H246.438z
			 M246.438,348.533v6.472h1.51c3.124,0,4.687-1.185,4.687-3.534c0-1.957-1.578-2.938-4.731-2.938H246.438z"/>
		<path fill="#C90000" d="M288.796,356.74v6.91c-1.367,0.406-2.718,0.613-4.051,0.613c-2.866,0-4.914-0.785-6.15-2.357
			c-1.106,1.572-2.945,2.357-5.515,2.357c-4.616,0-6.926-2.768-6.926-8.309c0-2.909,2.667-5.104,8-6.593
			c2.7-0.731,4.052-1.524,4.052-2.377c0-1.052-0.81-1.589-2.438-1.589c-1.73,0-2.592,0.639-2.592,1.915
			c0,0.255,0.083,0.65,0.252,1.173h-6.686c-0.493-1.081-0.737-2.332-0.737-3.766c0-4.007,3.387-6.012,10.152-6.012
			c6.282,0,9.421,2.064,9.421,6.203v1.979v7.106c0,1.993,0.682,2.992,2.046,2.992C287.881,356.988,288.273,356.906,288.796,356.74
			 M278.595,351.813c-3.971,0.979-5.952,2.131-5.952,3.457c0,1.145,0.958,1.719,2.877,1.719c2.051,0,3.075-1.004,3.075-3.011
			V351.813z"/>
		<path fill="#C90000" d="M309.438,339.053v9.629h-5.656v-0.665c0-1.733-1.223-2.592-3.664-2.592c-1.922,0-2.881,0.484-2.881,1.446
			c0,0.798,0.851,1.438,2.54,1.93l3.656,1.057c4.786,1.408,7.176,3.606,7.176,6.592c0,5.207-2.326,7.814-6.979,7.814
			c-3.095,0-5.258-0.877-6.49-2.621v2.301h-5.661v-10.191h5.661v0.488c0,2.221,1.104,3.331,3.32,3.331
			c1.981,0,2.973-0.567,2.973-1.716c0-1.258-1.138-2.229-3.412-2.912l-2.395-0.736c-4.585-1.392-6.876-3.624-6.876-6.713
			c0-4.508,2.226-6.758,6.684-6.758c2.825,0,4.947,0.904,6.348,2.718v-2.401H309.438z"/>
		<path fill="#C90000" d="M333.109,353.268c0.224,0.938,0.342,2.071,0.342,3.398c0,5.051-3.095,7.572-9.276,7.572
			c-4.327,0-7.115-0.852-8.373-2.544c-1.252-1.704-1.879-5.503-1.879-11.393c0-4.499,0.695-7.546,2.076-9.171
			c1.383-1.617,3.999-2.425,7.836-2.425c3.805,0,6.407,0.838,7.805,2.501c1.399,1.67,2.098,4.742,2.098,9.24l-0.046,1.659h-12.349
			v2.478l0.146,1.198c0.231,0.82,1.039,1.21,2.438,1.184c1.628-0.038,2.444-0.819,2.444-2.353v-0.814l0.048-0.531H333.109z
			 M321.198,349.344h5.221v-1.792c0-1.429-0.864-2.157-2.584-2.157c-1.827,0-2.734,0.865-2.734,2.596
			C321.102,348.355,321.137,348.801,321.198,349.344"/>
		<path fill="#C90000" d="M345.988,330.504v10.563c1.398-1.568,3.451-2.359,6.148-2.359c2.931,0,4.855,0.691,5.782,2.05
			c0.929,1.368,1.395,4.159,1.395,8.396v4.825c0,6.854-2.738,10.286-8.2,10.286c-3.222,0-5.401-0.967-6.541-2.895l-1.609,2.576
			h-3.953v-27.832h-2.492v-5.609H345.988z M349.504,345.396c-2.118,0-3.176,2.125-3.176,6.367c0,3.871,1.028,5.808,3.078,5.808
			c1.659,0,2.487-0.939,2.487-2.812l0.051-2.082l0.046-1.902l-0.046-1.849l-0.051-1.636
			C351.893,346.028,351.098,345.396,349.504,345.396"/>
		<path fill="#C90000" d="M386.008,356.74v6.91c-1.37,0.406-2.714,0.613-4.056,0.613c-2.861,0-4.911-0.785-6.149-2.357
			c-1.101,1.572-2.939,2.357-5.511,2.357c-4.62,0-6.936-2.768-6.936-8.309c0-2.909,2.674-5.104,8.01-6.593
			c2.7-0.731,4.05-1.524,4.05-2.377c0-1.052-0.814-1.589-2.44-1.589c-1.723,0-2.587,0.639-2.587,1.915
			c0,0.255,0.079,0.65,0.245,1.173h-6.688c-0.488-1.081-0.733-2.332-0.733-3.766c0-4.007,3.381-6.012,10.152-6.012
			c6.277,0,9.417,2.064,9.417,6.203v1.979v7.106c0,1.993,0.688,2.992,2.051,2.992C385.097,356.988,385.483,356.906,386.008,356.74
			 M375.803,351.813c-3.965,0.979-5.947,2.131-5.947,3.457c0,1.145,0.956,1.719,2.879,1.719c2.047,0,3.068-1.004,3.068-3.011
			V351.813z"/>
		<polygon fill="#C90000" points="398.063,356.912 400.893,356.912 400.893,363.942 388.396,363.942 388.396,356.912 
			391.083,356.912 391.083,337.195 388.396,337.195 388.396,330.504 398.063,330.504 		"/>
		<polygon fill="#C90000" points="412.942,356.912 415.773,356.912 415.773,363.942 403.281,363.942 403.281,356.912 
			405.963,356.912 405.963,337.195 403.281,337.195 403.281,330.504 412.942,330.504 		"/>
		<path fill="#C90000" d="M460.136,330.503v13.376h-8.788l0.146-2.77c0-1.305-0.969-1.953-2.924-1.953
			c-2.6,0-3.911,2.877-3.911,8.641c0,4.654,1.241,6.987,3.722,6.987c1.978,0,2.968-1.11,2.968-3.335v-1.106h-3.072v-4.849h15.479
			v4.849h-3.619v13.601h-4.489l-1.853-2.799c-0.131,0.162-0.231,0.287-0.289,0.376c-1.635,1.976-4.331,2.962-8.11,2.962
			c-4.194,0-6.975-0.787-8.338-2.355c-1.371-1.559-2.055-4.743-2.055-9.524v-2.26v-7.194c0-5.134,0.698-8.609,2.104-10.439
			c1.394-1.826,4.046-2.744,7.948-2.744c3.516,0,5.76,0.751,6.744,2.255v-1.717H460.136z"/>
		<path fill="#C90000" d="M488.877,356.74v6.91c-1.369,0.406-2.716,0.613-4.05,0.613c-2.862,0-4.91-0.785-6.149-2.357
			c-1.105,1.572-2.942,2.357-5.517,2.357c-4.611,0-6.926-2.768-6.926-8.309c0-2.909,2.664-5.104,8.005-6.593
			c2.7-0.731,4.046-1.524,4.046-2.377c0-1.052-0.813-1.589-2.438-1.589c-1.725,0-2.588,0.639-2.588,1.915
			c0,0.255,0.081,0.65,0.247,1.173h-6.689c-0.484-1.081-0.729-2.332-0.729-3.766c0-4.007,3.382-6.012,10.15-6.012
			c6.282,0,9.421,2.064,9.421,6.203v1.979v7.106c0,1.993,0.686,2.992,2.043,2.992C487.969,356.988,488.361,356.906,488.877,356.74
			 M478.678,351.813c-3.964,0.979-5.952,2.131-5.952,3.457c0,1.145,0.962,1.719,2.885,1.719c2.047,0,3.067-1.004,3.067-3.011
			V351.813z"/>
		<path fill="#C90000" d="M528.7,356.912v7.03H516.89v-7.03h2.191v-6.664v-1.321l-0.043-1.202c0-1.549-0.849-2.328-2.536-2.328
			c-1.988,0-2.974,1.672-2.974,5.023v6.492h1.751v7.03H504.3v-7.03h2.249v-6.71v-2.256c0-1.696-0.854-2.55-2.543-2.55
			c-2.277,0-3.416,1.49-3.416,4.461v7.055h2.495v7.03h-11.817v-7.03h2.542V345.74h-2.542v-6.687h9.322v2.078
			c1.632-1.616,3.691-2.425,6.199-2.425c3.096,0,5.128,0.809,6.099,2.425l0.587-0.505c1.369-1.277,3.253-1.92,5.655-1.92
			c4.625,0,6.937,2.16,6.937,6.473v11.732H528.7z"/>
		<path fill="#C90000" d="M550.766,353.268c0.221,0.938,0.336,2.071,0.336,3.398c0,5.051-3.087,7.572-9.269,7.572
			c-4.326,0-7.128-0.852-8.381-2.544c-1.245-1.704-1.87-5.503-1.87-11.393c0-4.499,0.691-7.546,2.074-9.171
			c1.383-1.617,3.995-2.425,7.836-2.425c3.801,0,6.404,0.838,7.808,2.501c1.397,1.67,2.091,4.742,2.091,9.24l-0.049,1.659h-12.34
			v2.478l0.143,1.198c0.229,0.82,1.039,1.21,2.442,1.184c1.619-0.038,2.437-0.819,2.437-2.353v-0.814l0.05-0.531H550.766z
			 M538.849,349.344h5.225v-1.792c0-1.429-0.867-2.157-2.581-2.157c-1.828,0-2.74,0.865-2.74,2.596
			C538.752,348.355,538.787,348.801,538.849,349.344"/>
		<polygon fill="#FFFFFF" points="285.338,174.656 286.523,177.775 290.011,177.878 287.252,179.909 288.229,183.097 
			285.338,181.234 282.454,183.097 283.429,179.909 280.672,177.878 284.158,177.775 		"/>
		<polygon fill="#FFFFFF" points="501.146,174.656 502.331,177.775 505.819,177.878 503.06,179.909 504.035,183.097 
			501.146,181.234 498.261,183.097 499.236,179.909 496.477,177.878 499.965,177.775 		"/>
		<polygon fill="#FFFFFF" points="392.698,122.795 394.539,127.64 399.952,127.801 395.67,130.953 397.183,135.898 392.698,133.009 
			388.218,135.898 389.729,130.953 385.452,127.801 390.865,127.64 		"/>
		<polygon fill="#FFFFFF" points="331.881,137.871 333.403,141.874 337.878,142.009 334.336,144.613 335.588,148.701 
			331.881,146.313 328.179,148.701 329.429,144.613 325.894,142.009 330.365,141.874 		"/>
		<polygon fill="#FFFFFF" points="457.032,137.871 458.555,141.874 463.031,142.009 459.488,144.613 460.74,148.701 
			457.032,146.313 453.33,148.701 454.581,144.613 451.043,142.009 455.52,141.874 		"/>
		<polygon fill="#B30200" points="562.744,363.797 562.744,365.672 559.139,365.672 559.139,374.393 556.604,374.393 
			556.604,365.672 552.99,365.672 552.99,363.797 		"/>
		<polygon fill="none" stroke="#FFFFFF" stroke-width="1.189" stroke-linecap="round" stroke-linejoin="round" points="
			562.744,363.797 562.744,365.672 559.139,365.672 559.139,374.393 556.604,374.393 556.604,365.672 552.99,365.672 
			552.99,363.797 		"/>
		<path fill="#B30200" d="M572.205,363.797h3.62v10.596h-2.345v-7.167c0-0.206,0.005-0.493,0.009-0.865s0.004-0.661,0.004-0.862
			l-2.279,8.895h-2.446l-2.266-8.895c0,0.201,0.004,0.49,0.008,0.862c0.008,0.372,0.012,0.659,0.012,0.865v7.167h-2.348v-10.596
			h3.662l2.194,8.329L572.205,363.797z"/>
		<path fill="none" stroke="#FFFFFF" stroke-width="1.189" stroke-linecap="round" stroke-linejoin="round" d="M572.205,363.797
			h3.62v10.596h-2.345v-7.167c0-0.206,0.005-0.493,0.009-0.865s0.004-0.661,0.004-0.862l-2.279,8.895h-2.446l-2.266-8.895
			c0,0.201,0.004,0.49,0.008,0.862c0.008,0.372,0.012,0.659,0.012,0.865v7.167h-2.348v-10.596h3.662l2.194,8.329L572.205,363.797z"
			/>
		<polygon fill="#B30200" points="562.744,363.772 562.744,365.646 559.139,365.646 559.139,374.369 556.604,374.369 
			556.604,365.646 552.99,365.646 552.99,363.772 		"/>
		<path fill="#B30200" d="M572.205,363.772h3.62v10.597h-2.345V367.2c0-0.204,0.005-0.492,0.009-0.865
			c0.004-0.372,0.004-0.659,0.004-0.861l-2.279,8.896h-2.446l-2.266-8.896c0,0.202,0.004,0.489,0.008,0.861
			c0.008,0.373,0.012,0.661,0.012,0.865v7.169h-2.348v-10.597h3.662l2.194,8.327L572.205,363.772z"/>
	</g>
</g>
</svg>
